<?xml version="1.0" encoding="UTF-8"?>
<svg id="Layer_1" xmlns="http://www.w3.org/2000/svg" xmlns:xlink="http://www.w3.org/1999/xlink" version="1.1" viewBox="0 0 260 260">
  <!-- Generator: Adobe Illustrator 29.4.0, SVG Export Plug-In . SVG Version: 2.1.0 Build 152)  -->
  <defs>
    <style>
      .st0 {
        fill: url(#linear-gradient);
        isolation: isolate;
      }
    </style>
    <linearGradient id="linear-gradient" x1="129.5" y1="13.7" x2="129.5" y2="246.3" gradientUnits="userSpaceOnUse">
      <stop offset="0" stop-color="#494849"/>
      <stop offset="1" stop-color="#222022"/>
    </linearGradient>
  </defs>
  <path class="st0" d="M245.8,130c0,64-51.9,115.8-115.8,115.8S14.2,194,14.2,130,66,14.2,130,14.2s115.8,51.9,115.8,115.8ZM237.1,85.6c-5.8-14-14.4-26.9-25.1-37.7-10.7-10.8-23.5-19.4-37.6-25.3-14-5.9-29.2-8.9-44.5-9-15.2,0-30.5,2.9-44.6,8.7-14.1,5.8-27.1,14.4-37.9,25.2-10.8,10.8-19.5,23.7-25.4,37.8-5.9,14.1-8.9,29.4-8.9,44.7,0,15.3,3.1,30.6,8.9,44.7,5.9,14.1,14.6,27,25.4,37.8,10.8,10.8,23.8,19.4,37.9,25.2,14.1,5.8,29.4,8.7,44.6,8.7,15.2,0,30.4-3.1,44.5-9,14-5.9,26.8-14.6,37.6-25.3,10.7-10.8,19.3-23.6,25.1-37.7,5.8-14,8.8-29.2,8.7-44.4,0-15.2-2.9-30.3-8.7-44.4ZM237,174.3c-5.8,14-14.4,26.8-25.2,37.5-10.7,10.7-23.6,19.2-37.6,24.9-14,5.7-29.1,8.7-44.2,8.6-15.1,0-30.2-3.1-44.1-8.9-13.9-5.8-26.6-14.4-37.2-25.1-10.6-10.7-19.1-23.4-24.9-37.3-5.8-13.9-8.7-28.9-8.7-44,0-15,2.9-30.1,8.7-44,5.7-13.9,14.2-26.7,24.9-37.3,10.6-10.7,23.3-19.3,37.2-25.1,13.9-5.8,29-8.9,44.1-8.9,15.1,0,30.2,2.8,44.2,8.6,14,5.7,26.9,14.2,37.6,24.9,10.7,10.7,19.3,23.5,25.2,37.5,5.8,14,8.8,29.1,8.9,44.3,0,15.2-3,30.3-8.9,44.3Z"/>
</svg>