<?xml version="1.0" encoding="UTF-8"?>
<svg id="Layer_1" xmlns="http://www.w3.org/2000/svg" version="1.1" viewBox="0 0 48 48">
  <!-- Generator: Adobe Illustrator 29.4.0, SVG Export Plug-In . SVG Version: 2.1.0 Build 152)  -->
  <defs>
    <style>
      .st0 {
        fill: #d8ff08;
      }
    </style>
  </defs>
  <path class="st0" d="M33.6,22.3v18.2h-1.9v-18.2c0-1.1,0-1.9-.2-2.4-.1-.5-.3-.9-.5-1.1s-.6-.4-1.1-.5c-.6-.1-1.4-.2-2.4-.2h-6.9c-1.1,0-1.9,0-2.4.2-.5.1-.9.3-1.1.5-.3.2-.4.6-.5,1.1-.1.6-.2,1.4-.2,2.4v18.2h-1.9v-18.2c0-1.2,0-2.1.2-2.8.2-.9.5-1.5,1-2,.5-.5,1.2-.8,2.1-1,.7-.2,1.6-.2,2.8-.2h6.9c1.2,0,2.1,0,2.8.2.9.2,1.5.5,2,1,.5.5.9,1.2,1,2.1.2.7.2,1.6.2,2.8ZM26.7,24c0,.5-.4.9-.9.9h-3.5c-.5,0-.9-.4-.9-.9s.4-.9.9-.9h3.5c.5,0,.9.4.9.9ZM26.7,29.2c0,.5-.4.9-.9.9h-3.5c-.5,0-.9-.4-.9-.9s.4-.9.9-.9h3.5c.5,0,.9.4.9.9ZM26.7,34.4c0,.5-.4.9-.9.9h-3.5c-.5,0-.9-.4-.9-.9s.4-.9.9-.9h3.5c.5,0,.9.4.9.9ZM40.6,17.3v23.1h-1.9v-23.1c0-1.1,0-1.8,0-2.4,0-.5-.1-.9-.3-1.1-.2-.3-.4-.5-.9-.8-.4-.3-1-.6-2.1-1.1l-7.5-3.9c-.2-.1-.5-.2-.6-.3l-.5-.2v.5c0,.2,0,.4,0,.7v7.4h-1.8v-7.4c0-.7,0-1.2.1-1.5.1-.6.4-1,.8-1.3.4-.3.9-.3,1.5-.2.5,0,1,.3,1.5.6l7.6,3.9c.9.5,1.6.8,2.2,1.2.7.4,1.1.9,1.4,1.4.3.5.5,1.1.6,1.9,0,.7,0,1.5,0,2.5ZM41.4,40.4H6.6c-.5,0-.9.4-.9.9s.4.9.9.9h34.7c.5,0,.9-.4.9-.9s-.4-.9-.9-.9ZM10.1,23.1c-.4,0-.8,0-1.1,0-.4,0-.7.3-1,.5s-.4.6-.5,1c0,.3,0,.6,0,1.1v14.7h1.9v-15.5s.3,0,.3,0c.1,0,.3,0,.5,0h4.3v-1.9h-4.3Z"/>
</svg>