<?xml version="1.0" encoding="UTF-8"?>
<svg id="Layer_1" xmlns="http://www.w3.org/2000/svg" version="1.1" viewBox="0 0 48 48">
  <!-- Generator: Adobe Illustrator 29.4.0, SVG Export Plug-In . SVG Version: 2.1.0 Build 152)  -->
  <defs>
    <style>
      .st0 {
        fill: #d8ff08;
      }
    </style>
  </defs>
  <path class="st0" d="M41.4,42.6H6.6c-.6,0-1.2-.5-1.2-1.2v-8.7c0-.6.5-1.2,1.2-1.2h7.5v-7.5c0-.6.5-1.2,1.2-1.2h7.5v-7.5c0-.6.5-1.2,1.2-1.2h7.5v-7.5c0-.6.5-1.2,1.2-1.2h8.7c.6,0,1.2.5,1.2,1.2v34.8c0,.6-.5,1.2-1.2,1.2ZM7.7,40.3h32.5V7.7h-6.4v7.5c0,.6-.5,1.2-1.2,1.2h-7.5v7.5c0,.6-.5,1.2-1.2,1.2h-7.5v7.5c0,.6-.5,1.2-1.2,1.2h-7.5v6.4Z"/>
</svg>