<?xml version="1.0" encoding="UTF-8"?>
<svg id="Layer_1" xmlns="http://www.w3.org/2000/svg" version="1.1" viewBox="0 0 48 48">
  <!-- Generator: Adobe Illustrator 29.4.0, SVG Export Plug-In . SVG Version: 2.1.0 Build 152)  -->
  <defs>
    <style>
      .st0 {
        fill: #d8ff08;
      }
    </style>
  </defs>
  <path class="st0" d="M22.5,24.5V7.8c0-.4-.3-.8-.8-.8-9,0-16.2,8-16.2,17.8s8,17.8,17.8,17.8,6.8-.8,9.8-3.3c.3-.3.4-.7.1-1.1l-10.7-13.7ZM23.2,41c-9,0-16.2-7.3-16.2-16.2s6.2-15.8,13.9-16.2v16.2c0,.2,0,.3.2.5l10.4,13.3c-2.4,1.9-4.5,2.5-8.2,2.5ZM24.8,24h17c.4,0,.8-.3.8-.8,0-9.8-8-17.8-17.8-17.8s-.8.3-.8.8v17c0,.4.3.8.8.8ZM25.5,7c8.3.4,15.1,7.1,15.5,15.5h-15.5V7ZM41.8,25.5h-15.5c-.3,0-.6.2-.7.4-.1.3,0,.6,0,.8l10.1,12.5c.1.2.3.3.5.3,0,0,0,0,0,0,.2,0,.4,0,.5-.2,3.6-3.4,5.7-8.1,5.7-13s-.3-.8-.8-.8ZM36.4,37.6l-8.5-10.5h13.1c-.2,3.9-1.8,7.7-4.6,10.5Z"/>
</svg>