<?xml version="1.0" encoding="UTF-8"?>
<svg id="Layer_1" xmlns="http://www.w3.org/2000/svg" version="1.1" viewBox="0 0 48 48">
  <!-- Generator: Adobe Illustrator 29.4.0, SVG Export Plug-In . SVG Version: 2.1.0 Build 152)  -->
  <defs>
    <style>
      .st0 {
        fill: #d8ff08;
      }
    </style>
  </defs>
  <path class="st0" d="M44.3,15.9l-6.4-9c-.2-.3-.6-.5-.9-.5H11.1c-.4,0-.7.2-.9.5L3.7,15.9c-.2.3-.2.6,0,.8l19.7,24.6c.1.2.3.3.5.3s.4,0,.5-.3l19.7-24.6c.2-.2.2-.6,0-.8h0ZM24.4,8.8l4.3,6c.2.3,0,.7-.4.7h-8.6c-.4,0-.6-.4-.4-.7l4.3-6c.2-.3.6-.3.7,0ZM17.1,14.5l-4.3-6c-.2-.3,0-.7.4-.7h8.6c.4,0,.6.4.4.7l-4.3,6c-.2.3-.6.3-.7,0ZM26.3,7.8h8.6c.4,0,.6.4.4.7l-4.3,6c-.2.3-.6.3-.7,0l-4.3-6c-.2-.3,0-.7.4-.7ZM29.5,17.5l-5.1,19c-.1.4-.8.4-.9,0l-5.1-19c0-.3.1-.6.4-.6h10.1c.3,0,.5.3.4.6ZM21.1,36.2L6.3,17.7c-.2-.3,0-.7.4-.7h9.9c.2,0,.4.1.4.3l4.9,18.5c.1.5-.5.8-.8.4ZM31.5,17h9.9c.4,0,.6.4.4.7l-14.8,18.5c-.3.4-.9,0-.8-.4l4.9-18.5c0-.2.2-.3.4-.3ZM32.5,14.8l4.3-6c.2-.3.6-.3.7,0l4.3,6c.2.3,0,.7-.4.7h-8.6c-.4,0-.6-.4-.4-.7ZM11.2,8.8l4.3,6c.2.3,0,.7-.4.7H6.6c-.4,0-.6-.4-.4-.7l4.3-6c.2-.3.6-.3.7,0Z"/>
</svg>