<?xml version="1.0" encoding="UTF-8"?>
<svg id="Layer_1" xmlns="http://www.w3.org/2000/svg" version="1.1" viewBox="0 0 48 48">
  <!-- Generator: Adobe Illustrator 29.4.0, SVG Export Plug-In . SVG Version: 2.1.0 Build 152)  -->
  <defs>
    <style>
      .st0 {
        fill: #d8ff08;
      }
    </style>
  </defs>
  <path class="st0" d="M16.3,38.6c-.6,0-1.2.2-1.7.6l-7-4V12.8l7-4c.5.4,1.1.6,1.7.6,1.4,0,2.5-1.1,2.5-2.5s-1.1-2.5-2.5-2.5-1.5.4-2,1c-.5.6-.6,1.3-.5,2l-7.5,4.2c-.3.2-.4.4-.4.7v23.5c0,.3.2.6.4.7l7.5,4.2c-.1.7,0,1.4.5,2,.5.6,1.2,1,2,1,1.4,0,2.5-1.1,2.5-2.6s-1.1-2.6-2.5-2.6ZM16.3,6c.5,0,.9.4.9.9s-.4.9-.9.9-.9-.4-.9-.9.4-.9.9-.9ZM16.3,42c-.5,0-.9-.4-.9-.9s.4-.9.9-.9.9.4.9.9-.4.9-.9.9ZM37.9,24c0-.3-.2-.6-.5-.8l-4.4-2.2,4.4-2.2c.3-.1.5-.4.5-.8s-.2-.6-.5-.8l-13.1-6.5c-.1,0-.2,0-.4,0s-.3,0-.4,0l-13.1,6.5c-.3.1-.5.4-.5.8s.2.6.5.8l4.4,2.2-4.4,2.2c-.3.1-.5.4-.5.8s.2.6.5.8l4.4,2.2-4.4,2.2c-.3.1-.5.4-.5.8s.2.6.5.8l13.1,6.5c.1,0,.2,0,.4,0s.3,0,.4,0l13.1-6.5c.3-.1.5-.4.5-.8s-.2-.6-.5-.8l-4.4-2.2,4.4-2.2c.3-.1.5-.4.5-.8ZM12.8,18.1l11.2-5.5,11.2,5.5-11.2,5.5-11.2-5.5ZM24,35.4l-11.2-5.5,4.1-2,6.8,3.3c.1,0,.2,0,.4,0s.3,0,.4,0l6.8-3.3,4.1,2-11.2,5.5ZM24,29.5l-11.2-5.5,4.1-2,6.8,3.3c.1,0,.2,0,.4,0s.3,0,.4,0l6.8-3.3,4.1,2-11.2,5.5ZM41.7,11.5l-7.5-4.2c.1-.7,0-1.4-.5-2-.5-.6-1.2-1-2-1-1.4,0-2.6,1.1-2.6,2.5s1.1,2.5,2.6,2.5,1.2-.2,1.7-.6l7,4v22.5l-7,4c-.5-.4-1.1-.6-1.7-.6-1.4,0-2.6,1.2-2.6,2.6s1.1,2.6,2.6,2.6,1.5-.4,2-1c.5-.6.6-1.3.5-2l7.5-4.2c.3-.2.4-.4.4-.7V12.3c0-.3-.2-.6-.4-.7ZM31.7,7.7c-.5,0-.9-.4-.9-.9s.4-.9.9-.9.9.4.9.9-.4.9-.9.9ZM31.7,42c-.5,0-.9-.4-.9-.9s.4-.9.9-.9.9.4.9.9-.4.9-.9.9Z"/>
</svg>