<?xml version="1.0" encoding="UTF-8"?>
<svg id="Layer_1" xmlns="http://www.w3.org/2000/svg" version="1.1" viewBox="0 0 48 48">
  <!-- Generator: Adobe Illustrator 29.4.0, SVG Export Plug-In . SVG Version: 2.1.0 Build 152)  -->
  <defs>
    <style>
      .st0 {
        fill: #d8ff08;
      }
    </style>
  </defs>
  <path class="st0" d="M34.1,28.2c-.8,0-1.2.6-1.2,1.2s.4,1.1,1.2,1.2c.6,0,1.2-.5,1.2-1.2s-.5-1.2-1.2-1.2ZM34.1,28.2c-.8,0-1.2.6-1.2,1.2s.4,1.1,1.2,1.2c.6,0,1.2-.5,1.2-1.2s-.5-1.2-1.2-1.2ZM34.1,28.2c-.8,0-1.2.6-1.2,1.2s.4,1.1,1.2,1.2c.6,0,1.2-.5,1.2-1.2s-.5-1.2-1.2-1.2ZM34.1,28.2c-.8,0-1.2.6-1.2,1.2s.4,1.1,1.2,1.2c.6,0,1.2-.5,1.2-1.2s-.5-1.2-1.2-1.2ZM39.8,15.8c.5,0,.8-.4.8-.8v-1.4c0-3.4-2.8-6.2-6.2-6.2s-20.6,0-21,0c-1.6,0-3.2.8-4.3,1.9-1.2,1.2-1.8,2.8-1.7,4.4v19.3c0,4.1,3.4,7.5,7.5,7.5h19.5c3.4,0,6.2-2.8,6.2-6.2v-10.1c0-3.4-2.8-6.2-6.2-6.2H13.6c-2.4,0-4.4-1.9-4.5-4.3,0-1.2.4-2.4,1.2-3.3.9-.9,2.1-1.4,3.3-1.4h20.8c2.5,0,4.5,2,4.5,4.5v1.4c0,.5.4.8.8.8ZM9.9,18.5c1.1.8,2.3,1.2,3.7,1.2h20.8c2.5,0,4.5,2,4.5,4.5v10.1c0,2.5-2,4.5-4.5,4.5H14.9c-3.2,0-5.8-2.6-5.8-5.8v-15.1l.8.6ZM34.1,30.5c.6,0,1.2-.5,1.2-1.2s-.5-1.2-1.2-1.2c-.8,0-1.2.6-1.2,1.2s.4,1.1,1.2,1.2ZM34.1,28.2c-.8,0-1.2.6-1.2,1.2s.4,1.1,1.2,1.2c.6,0,1.2-.5,1.2-1.2s-.5-1.2-1.2-1.2ZM34.1,28.2c-.8,0-1.2.6-1.2,1.2s.4,1.1,1.2,1.2c.6,0,1.2-.5,1.2-1.2s-.5-1.2-1.2-1.2ZM34.1,28.2c-.8,0-1.2.6-1.2,1.2s.4,1.1,1.2,1.2c.6,0,1.2-.5,1.2-1.2s-.5-1.2-1.2-1.2ZM34.1,28.2c-.8,0-1.2.6-1.2,1.2s.4,1.1,1.2,1.2c.6,0,1.2-.5,1.2-1.2s-.5-1.2-1.2-1.2ZM34.4,12.7H13.6c-.6,0-.8.5-.8.8s.2.8.8.8h20.8c.5,0,.8-.4.8-.8s-.4-.8-.8-.8Z"/>
</svg>