<?xml version="1.0" encoding="UTF-8"?>
<svg id="Layer_1" xmlns="http://www.w3.org/2000/svg" version="1.1" viewBox="0 0 16 16">
  <!-- Generator: Adobe Illustrator 29.4.0, SVG Export Plug-In . SVG Version: 2.1.0 Build 152)  -->
  <defs>
    <style>
      .st0 {
        fill: #efefef;
      }
    </style>
  </defs>
  <path class="st0" d="M8.7,4.9c0,.4-.3.7-.7.7s-.7-.3-.7-.7.3-.7.7-.7.7.3.7.7ZM8,6.5c-.2,0-.5.2-.5.5v4.4c0,.2.2.5.5.5s.5-.2.5-.5v-4.4c0-.2-.2-.5-.5-.5ZM15.8,8c0,4.3-3.5,7.8-7.7,7.8S.2,12.3.2,8,3.7.2,8,.2s7.7,3.5,7.7,7.8ZM14.8,8c0-3.8-3-6.8-6.8-6.8S1.2,4.2,1.2,8s3,6.8,6.8,6.8,6.8-3.1,6.8-6.8Z"/>
</svg>