<?xml version="1.0" encoding="UTF-8"?>
<svg id="Layer_1" xmlns="http://www.w3.org/2000/svg" version="1.1" viewBox="0 0 16 16">
  <!-- Generator: Adobe Illustrator 29.4.0, SVG Export Plug-In . SVG Version: 2.1.0 Build 152)  -->
  <defs>
    <style>
      .st0 {
        fill: #efefef;
      }
    </style>
  </defs>
  <path class="st0" d="M11.7,7.3v7h-.7v-7c0-.4,0-.7,0-.9,0-.2-.1-.3-.2-.4s-.2-.2-.4-.2c-.2,0-.5,0-.9,0h-2.7c-.4,0-.7,0-.9,0-.2,0-.3.1-.4.2-.1,0-.2.2-.2.4,0,.2,0,.5,0,.9v7h-.7v-7c0-.5,0-.8,0-1.1,0-.3.2-.6.4-.8.2-.2.5-.3.8-.4.3,0,.6,0,1.1,0h2.7c.5,0,.8,0,1.1,0,.3,0,.6.2.8.4.2.2.3.5.4.8,0,.3,0,.6,0,1.1ZM9,8c0,.2-.2.4-.4.4h-1.3c-.2,0-.4-.2-.4-.4s.2-.4.4-.4h1.3c.2,0,.4.2.4.4ZM9,10c0,.2-.2.4-.4.4h-1.3c-.2,0-.4-.2-.4-.4s.2-.4.4-.4h1.3c.2,0,.4.2.4.4ZM9,12c0,.2-.2.4-.4.4h-1.3c-.2,0-.4-.2-.4-.4s.2-.4.4-.4h1.3c.2,0,.4.2.4.4ZM14.4,5.4v9h-.7V5.4c0-.4,0-.7,0-.9,0-.2,0-.3-.1-.4,0-.1-.2-.2-.3-.3-.2-.1-.4-.2-.8-.4l-2.9-1.5c0,0-.2,0-.2-.1h-.2c0,0,0,.1,0,.1,0,0,0,.2,0,.3v2.9h-.7v-2.9c0-.3,0-.5,0-.6,0-.2.2-.4.3-.5.2-.1.3-.1.6,0,.2,0,.4.1.6.2l2.9,1.5c.4.2.6.3.9.5.3.2.4.3.6.5.1.2.2.4.2.7,0,.3,0,.6,0,1ZM14.7,14.4H1.3c-.2,0-.4.2-.4.4s.2.4.4.4h13.5c.2,0,.4-.2.4-.4s-.2-.4-.4-.4ZM2.6,7.6c-.2,0-.3,0-.4,0-.2,0-.3.1-.4.2s-.2.2-.2.4c0,.1,0,.2,0,.4v5.7h.7v-6s.1,0,.1,0c0,0,.1,0,.2,0h1.7v-.7h-1.7Z"/>
</svg>