<?xml version="1.0" encoding="UTF-8"?>
<svg id="Layer_1" xmlns="http://www.w3.org/2000/svg" version="1.1" viewBox="0 0 16 16">
  <!-- Generator: Adobe Illustrator 29.4.0, SVG Export Plug-In . SVG Version: 2.1.0 Build 152)  -->
  <defs>
    <style>
      .st0 {
        fill: #efefef;
      }
    </style>
  </defs>
  <path class="st0" d="M15,.6h-3.5c-.2,0-.3.2-.3.3v3.2h-3.2c-.2,0-.3.1-.3.3v3.2h-3.2c-.2,0-.3.2-.3.4v3.2H1c-.2,0-.3.2-.3.3v3.5c0,.2.2.3.3.3h14.1c.2,0,.3-.2.3-.3V1c0-.2-.2-.3-.3-.3ZM14.7,14.7H1.3v-2.8h3.2c.2,0,.3-.2.3-.3v-3.2h3.2c.2,0,.4-.1.4-.3v-3.2h3.2c.2,0,.3-.2.3-.3V1.3h2.8v13.4Z"/>
</svg>