<?xml version="1.0" encoding="UTF-8"?>
<svg id="Layer_1" xmlns="http://www.w3.org/2000/svg" version="1.1" viewBox="0 0 16 16">
  <!-- Generator: Adobe Illustrator 29.4.0, SVG Export Plug-In . SVG Version: 2.1.0 Build 152)  -->
  <defs>
    <style>
      .st0 {
        fill: #efefef;
      }
    </style>
  </defs>
  <path class="st0" d="M7.4,8.2V1.4c0-.2-.1-.3-.3-.3C3.4,1.1.5,4.3.5,8.3s3.2,7.2,7.2,7.2,2.7-.3,3.9-1.3c.1-.1.2-.3,0-.4l-4.3-5.5ZM7.7,14.9c-3.6,0-6.6-2.9-6.6-6.6S3.6,1.9,6.7,1.8v6.6c0,0,0,.1,0,.2l4.2,5.4c-1,.8-1.8,1-3.3,1ZM8.3,8h6.9c.2,0,.3-.1.3-.3,0-4-3.2-7.2-7.2-7.2s-.3.1-.3.3v6.9c0,.2.1.3.3.3ZM8.6,1.1c3.4.2,6.1,2.9,6.2,6.2h-6.2V1.1ZM15.2,8.6h-6.2c-.1,0-.2,0-.3.2,0,.1,0,.2,0,.3l4.1,5c0,0,.1.1.2.1,0,0,0,0,0,0,0,0,.2,0,.2,0,1.5-1.4,2.3-3.3,2.3-5.3s-.1-.3-.3-.3ZM13,13.5l-3.4-4.3h5.3c0,1.6-.7,3.1-1.8,4.3Z"/>
</svg>