<?xml version="1.0" encoding="UTF-8"?>
<svg id="Layer_1" xmlns="http://www.w3.org/2000/svg" version="1.1" viewBox="0 0 16 16">
  <!-- Generator: Adobe Illustrator 29.4.0, SVG Export Plug-In . SVG Version: 2.1.0 Build 152)  -->
  <defs>
    <style>
      .st0 {
        fill: #efefef;
      }
    </style>
  </defs>
  <path class="st0" d="M14.8,3.3l-2.9-1.7c.2-.5-.3-1.1-.9-1.1s-.9.4-.9.9.4.9.9.9.5-.1.6-.3l2.8,1.6v8.8l-2.8,1.6c-.2-.2-.4-.3-.6-.3-.5,0-.9.4-.9.9s.4.9.9.9,1-.6.9-1.1l2.9-1.7c0,0,.1-.1.1-.2V3.5c0,0,0-.2-.1-.2ZM11,1.6c-.1,0-.2,0-.2-.2s.1-.2.2-.2.2.1.2.2-.1.2-.2.2ZM11,14.8c-.1,0-.2-.1-.2-.2s.1-.2.2-.2.2,0,.2.2-.1.2-.2.2ZM13.1,7.8l-1.9-.9,1.9-.9c.2,0,.2-.3,0-.4l-5-2.5c0,0-.1,0-.2,0l-5,2.5c-.2,0-.2.3,0,.4l1.9.9-1.9.9c-.2,0-.2.3,0,.4l1.9.9-1.9.9c-.2,0-.2.3,0,.4l5,2.5c0,0,.1,0,.2,0l5-2.5c0,0,.1-.1.1-.2s0-.2-.1-.2l-1.9-.9,1.9-.9c.2,0,.2-.3,0-.4ZM3.5,5.7l4.5-2.2,4.5,2.2-4.5,2.2-4.5-2.2ZM12.5,10.3l-4.5,2.2-4.5-2.2,1.8-.9,2.6,1.3c0,0,.1,0,.2,0l2.6-1.3,1.8.9ZM8,10.2l-4.5-2.2,1.8-.9,2.6,1.3c0,0,.1,0,.2,0l2.6-1.3,1.8.9-4.5,2.2ZM5,13.7c-.2,0-.5.1-.6.3l-2.8-1.6V3.6l2.8-1.6c.2.2.4.3.6.3.5,0,.9-.4.9-.9s-.4-.9-.9-.9-1,.6-.9,1.1l-2.9,1.7c0,0-.1.1-.1.2v9c0,0,0,.2.1.2l2.9,1.7c-.1.5.3,1.1.9,1.1s.9-.4.9-.9-.4-.9-.9-.9ZM5,1.1c.1,0,.2.1.2.2s-.1.2-.2.2-.2,0-.2-.2,0-.2.2-.2ZM5,14.4c.1,0,.2,0,.2.2s-.1.2-.2.2-.2-.1-.2-.2,0-.2.2-.2Z"/>
</svg>