<?xml version="1.0" encoding="UTF-8"?>
<svg id="Layer_1" xmlns="http://www.w3.org/2000/svg" version="1.1" viewBox="0 0 97 97">
  <!-- Generator: Adobe Illustrator 29.4.0, SVG Export Plug-In . SVG Version: 2.1.0 Build 152)  -->
  <defs>
    <style>
      .st0 {
        fill: #d8ff08;
        stroke: #d8ff08;
        stroke-miterlimit: 10;
        stroke-width: .2px;
      }
    </style>
  </defs>
  <path class="st0" d="M40.6,49.1c.1,0,.1.1.1.1l12.5-12.5h-.1c0-.1-14.4-14.5-14.4-14.5-.1,0-.1-.1-.1-.1l-12.5,12.5h.1c0,.1,14.4,14.5,14.4,14.5ZM30.7,58.9c1.3,1.3,3.5,1.3,4.9,0,.5-.9,6.8-4.8,3.4-8.2l-14.4-14.4c-1.4-1.3-3.5-1.3-4.9,0l-3.4,3.4c-1.3,1.3-1.3,3.5,0,4.9l14.4,14.4ZM54.7,34.9c1.3,1.3,3.5,1.3,4.9,0l3.4-3.4c1.4-1.4,1.3-3.5,0-4.9l-14.4-14.4c-1.3-1.3-3.5-1.3-4.9,0l-3.4,3.5c-1.3,1.3-1.3,3.5,0,4.9l14.4,14.3ZM82.5,69.4l-30.4-28.3-7.1,7.1,28.3,30.5c2.4,2.7,6.7,2.9,9.4.1,2.7-2.7,2.6-6.8-.2-9.4h0ZM53,76.1c.5-.7.7-1.5.7-2.3,0-2.2-1.7-4.1-3.8-4.1h-28.8c-2.1,0-3.8,1.7-3.8,4.1s.2,1.7.7,2.3c-3.4,1.3-5.7,4.5-5.7,8.3s.5,1.2,1.2,1.2h44.2c.6,0,1.2-.6,1.2-1.2-.1-3.8-2.4-7.1-5.8-8.3Z"/>
</svg>