<?xml version="1.0" encoding="UTF-8"?>
<svg id="Layer_1" xmlns="http://www.w3.org/2000/svg" version="1.1" viewBox="0 0 97 97">
  <!-- Generator: Adobe Illustrator 29.4.0, SVG Export Plug-In . SVG Version: 2.1.0 Build 152)  -->
  <defs>
    <style>
      .st0 {
        fill: #d8ff08;
        stroke: #d8ff08;
        stroke-miterlimit: 10;
        stroke-width: .2px;
      }
    </style>
  </defs>
  <path class="st0" d="M42.9,53.5c0-1.1-.9-2-2-2h-.7l-6.8-15.4c-1.3.3-2.6.6-4,.9l6.4,14.5h-13.8l6.3-14.3c-1.5.3-3.1.5-4.7.7l-6,13.6h-.7c-1.1,0-2,.9-2,2,0,6.8,7.3,11.4,13.9,11.3,6.7.2,14-4.4,13.9-11.3h0ZM80.8,51.5h-.7l-6-13.6c-1.6-.2-3.1-.4-4.7-.7l6.3,14.3h-13.8l6.4-14.5c-1.3-.3-2.6-.6-4-.9l-6.8,15.4h-.7c-1.1,0-2,.9-2,2,0,3.1,1.5,6,4.3,8.1,5.1,4.2,14.2,4.2,19.3,0,2.8-2.1,4.3-5,4.3-8.1,0-1.1-.9-2-2-2ZM17,34.2c5.5,0,10.9-.7,16.2-2.2,10.3-2.9,21.1-2.9,31.4,0,5.3,1.5,10.7,2.2,16.2,2.2s2.8-3.2.6-3.9h0c-5.2-1.7-10.2-3.9-15-6.6l-3.1-1.7c-3.8-2.1-8.1-3.4-12.4-3.7v-2.1c0-2.6-3.9-2.6-4,0v2.1c-4.3.3-8.6,1.5-12.4,3.7l-3.1,1.7c-4.8,2.6-9.8,4.9-15,6.6h0c-2.1.7-1.6,3.9.6,3.9h0ZM56.9,74.3h-15.9c-3.3,0-6,2.7-6,6s.9,2,2,2h23.9c1.1,0,2-.9,2-2,0-3.3-2.7-6-6-6ZM46.9,70.3h4v-36.4c-1.3,0-2.7,0-4,0v36.4Z"/>
</svg>