<?xml version="1.0" encoding="UTF-8"?>
<svg id="Layer_1" xmlns="http://www.w3.org/2000/svg" version="1.1" viewBox="0 0 97 97">
  <!-- Generator: Adobe Illustrator 29.4.0, SVG Export Plug-In . SVG Version: 2.1.0 Build 152)  -->
  <defs>
    <style>
      .st0 {
        fill: #d8ff08;
        stroke: #d8ff08;
        stroke-miterlimit: 10;
        stroke-width: .2px;
      }
    </style>
  </defs>
  <path class="st0" d="M21.5,58c-.3-.9-.6-1.8-.8-2.8l-5.6-2.1v-9.1l5.6-2.1c.2-.9.5-1.9.8-2.8.2,0,.5,0,.7,0,9,0,16.3-7.3,16.3-16.3s0-.8,0-1.2c1.2-.4,2.3-.8,3.5-1.1l2.1-5.6h9.1l2.1,5.6c1.1.3,2.2.6,3.3,1,0,.4,0,.8,0,1.3,0,9,7.3,16.3,16.3,16.3s.6,0,.9,0c.3.9.6,1.8.8,2.8l5.6,2.1v9.1l-5.6,2.1c-.2.9-.5,1.9-.8,2.8-.3,0-.6,0-.9,0-9,0-16.3,7.3-16.3,16.3s0,.8,0,1.2c-1.1.4-2.2.7-3.3,1l-2.1,5.6h-9.1l-2.1-5.6c-1.2-.3-2.5-.7-3.6-1.1,0-.4,0-.7,0-1.1,0-9-7.3-16.3-16.3-16.3s-.4,0-.6,0ZM48.7,32.6c-8.8,0-15.8,7.1-15.8,15.8s7.1,15.9,15.8,15.9,15.9-7.1,15.9-15.9-7.1-15.8-15.9-15.8ZM22.2,9c7.6,0,13.7,6.1,13.7,13.7s-6.1,13.7-13.7,13.7-13.7-6.1-13.7-13.7,6.1-13.7,13.7-13.7ZM30.9,29.7c1.5-1.9,2.4-4.3,2.4-6.9,0-6.1-5-11.1-11.1-11.1s-11.1,5-11.1,11.1.9,5,2.4,6.9c1.5-3.3,4.8-5.6,8.7-5.6s7.2,2.3,8.7,5.6h0ZM22.2,23.3c-2.7,0-4.8-2.2-4.8-4.8s2.2-4.8,4.8-4.8,4.8,2.2,4.8,4.8-2.2,4.8-4.8,4.8ZM22.1,60.5c7.6,0,13.7,6.1,13.7,13.7s-6.1,13.7-13.7,13.7-13.7-6.1-13.7-13.7,6.1-13.7,13.7-13.7ZM11.1,75.6h1.2c.7,0,1.3-.6,1.3-1.3s-.6-1.3-1.3-1.3h-1.2c-.7,0-1.3.6-1.3,1.3s.6,1.3,1.3,1.3ZM20.8,69.1v5.2c0,.5.2.9.6,1.1l3.5,2c.6.4,1.4.1,1.8-.5.4-.6.1-1.4-.5-1.8l-2.8-1.6v-4.4c0-.7-.6-1.3-1.3-1.3s-1.3.6-1.3,1.3ZM30.7,81.1l-.8-.8c-.5-.5-1.3-.5-1.8,0s-.5,1.3,0,1.8l.8.8c.5.5,1.3.5,1.8,0,.5-.5.5-1.3,0-1.8h0ZM20.8,63.3v1.2c0,.7.6,1.3,1.3,1.3s1.3-.6,1.3-1.3v-1.2c0-.7-.6-1.3-1.3-1.3s-1.3.6-1.3,1.3ZM28.9,65.6l-.8.8c-.5.5-.5,1.3,0,1.8.5.5,1.3.5,1.8,0l.8-.8c.5-.5.5-1.3,0-1.8-.5-.5-1.3-.5-1.8,0h0ZM23.4,85.2v-1.2c0-.7-.6-1.3-1.3-1.3s-1.3.6-1.3,1.3v1.2c0,.7.6,1.3,1.3,1.3s1.3-.6,1.3-1.3ZM33,73h-1.2c-.7,0-1.3.6-1.3,1.3s.6,1.3,1.3,1.3h1.2c.7,0,1.3-.6,1.3-1.3s-.6-1.3-1.3-1.3ZM15.3,82.9l.8-.8c.5-.5.5-1.3,0-1.8s-1.3-.5-1.8,0l-.8.8c-.5.5-.5,1.3,0,1.8s1.3.5,1.8,0h0ZM13.4,67.4l.8.8c.5.5,1.3.5,1.8,0s.5-1.3,0-1.8l-.8-.8c-.5-.5-1.3-.5-1.8,0s-.5,1.3,0,1.8ZM74.9,88c-7.6,0-13.7-6.2-13.7-13.7s6.2-13.7,13.7-13.7,13.7,6.2,13.7,13.7-6.2,13.7-13.7,13.7ZM73.6,66.4c-.3,0-.6.2-.9.3-1.8.7-3.2,2.3-3.1,4.5h0c.1,2.8,2.7,4,5,4.4h0c.6.1,1.3.3,1.9.5.7.3,1.2.8,1.3,1.6,0,.7-.2,1.1-.7,1.4-.6.4-1.5.6-2.3.6-1.4,0-2.9-.6-3.3-2.1-.2-.7-.9-1.1-1.6-.9-.7.2-1.1.9-.9,1.6.5,2.2,2.3,3.5,4.4,3.9v.8c0,.7.6,1.3,1.3,1.3s1.3-.6,1.3-1.3v-.8c2.4-.4,4.7-2,4.4-4.9h0c-.4-2.9-3-4-5.4-4.4-.6,0-1.2-.2-1.8-.5-.6-.3-1.1-.7-1.1-1.4,0-.9.6-1.6,1.4-1.9,1.4-.6,3.3-.2,4.1,1.5.3.7,1,1,1.7.7s1-1,.7-1.7c-.8-1.9-2.3-2.9-3.9-3.2v-.8c0-.7-.6-1.3-1.3-1.3s-1.3.6-1.3,1.3v.8ZM74.9,36.5c-7.6,0-13.7-6.2-13.7-13.7s6.2-13.7,13.7-13.7,13.7,6.2,13.7,13.7-6.2,13.7-13.7,13.7ZM81.5,20.5v1.5c0,.7.6,1.3,1.3,1.3s1.3-.6,1.3-1.3v-4.6c0-.7-.6-1.3-1.3-1.3h-4.6c-.7,0-1.3.6-1.3,1.3s.6,1.3,1.3,1.3h1.3c-4.2,3.9-8.7,6.3-13,8-.7.3-1,1-.8,1.7.3.7,1,1,1.7.8,4.6-1.8,9.5-4.5,14-8.7h0Z"/>
</svg>