<?xml version="1.0" encoding="UTF-8"?>
<svg id="Layer_1" xmlns="http://www.w3.org/2000/svg" version="1.1" viewBox="0 0 97 97">
  <!-- Generator: Adobe Illustrator 29.4.0, SVG Export Plug-In . SVG Version: 2.1.0 Build 152)  -->
  <defs>
    <style>
      .st0 {
        fill: #d8ff08;
      }

      .st1 {
        fill: #fff;
      }
    </style>
  </defs>
  <path class="st0" d="M72,11.3H24.2c-3.4,0-6.2,2.8-6.2,6.2v62c0,3.4,2.8,6.2,6.2,6.2h47.8c3.4,0,6.2-2.8,6.2-6.2V17.5c0-3.4-2.8-6.2-6.2-6.2ZM68.4,41.1c0,.8-.7,1.5-1.5,1.5H29.4c-.9,0-1.5-.7-1.5-1.6,0-.8.7-1.5,1.5-1.5h37.5c.9,0,1.5.7,1.5,1.6ZM29.4,29h16.9c.9,0,1.5.7,1.6,1.5,0,.9-.7,1.5-1.5,1.6h-16.9c-.9,0-1.5-.7-1.5-1.5s.7-1.5,1.5-1.5ZM66.9,59.6H29.4c-.9,0-1.5-.7-1.5-1.6,0-.8.7-1.5,1.5-1.5h37.5c.9,0,1.5.7,1.5,1.6,0,.8-.7,1.5-1.5,1.5ZM66.9,51.1H29.4c-.9,0-1.5-.7-1.5-1.5h0c0-.9.7-1.6,1.5-1.6h37.5c.9,0,1.5.7,1.5,1.6,0,.8-.7,1.5-1.5,1.5Z"/>
  <path class="st1" d="M60.7,68.7c0,1,.3,2,.9,2.8l-4.1,5.3c-.2.2-.3.5-.3.8v8.1h2.6v-7.6l3.9-4.9c.6.2,1.2.4,1.8.4,2.6,0,4.8-2.1,4.8-4.8,0-2.6-2.1-4.8-4.8-4.8-2.6,0-4.8,2.1-4.8,4.8ZM38.6,76.8l-4.1-5.3c1.5-2.1,1-5-1.1-6.5-2.1-1.5-5-1-6.5,1.1-1.5,2.1-1,5,1.1,6.5,1.3.9,3,1.1,4.5.5l3.9,4.9v7.6h2.6v-8.1c0-.3,0-.6-.3-.8ZM52.6,74.9c-.7-2.5-3.3-4-5.9-3.3-2.5.7-4,3.3-3.3,5.9.4,1.6,1.7,2.9,3.3,3.3v4.9h2.6v-4.9c2.5-.7,4-3.3,3.3-5.9Z"/>
</svg>