<?xml version="1.0" encoding="UTF-8"?>
<svg id="Layer_1" xmlns="http://www.w3.org/2000/svg" version="1.1" viewBox="0 0 97 97">
  <!-- Generator: Adobe Illustrator 29.4.0, SVG Export Plug-In . SVG Version: 2.1.0 Build 152)  -->
  <defs>
    <style>
      .st0 {
        fill: #d8ff08;
        stroke: #d8ff08;
        stroke-miterlimit: 10;
        stroke-width: .2px;
      }
    </style>
  </defs>
  <path class="st0" d="M74.8,63.8c-2.9,0-5.7,1.1-7.8,3.2l-4.7,4.7-4.7-4.7c-4.3-4.3-11.2-4.3-15.5,0-4.3,4.1-4.3,11.5,0,15.5,4.3,4.3,11.2,4.3,15.5,0l4.7-4.7,4.7,4.7c4.3,4.3,11.2,4.3,15.5,0,6.9-6.8,2-18.7-7.8-18.7ZM54.6,79.4c-2.6,2.6-6.7,2.6-9.3,0h0c-3.1-3.1-1.9-7.6,0-9.3,2.6-2.6,6.7-2.6,9.3,0l4.7,4.7-4.7,4.7ZM74.8,81.3c-1.8,0-3.4-.7-4.7-1.9l-4.7-4.7,4.7-4.7c2.6-2.6,6.7-2.6,9.3,0,4.1,4.1,1.2,11.2-4.7,11.2ZM39.1,63.9h0c6-6,15.7-6,21.7,0l1.6,1.6,1.6-1.6c5.3-5.3,13.4-5.9,19.3-2,1.4-3.6,2.2-7.4,2.5-11.3h-8.7v-4.4h8.7c-.5-8.4-3.7-16.3-9.3-22.6l-6.2,6.2-3.1-3.1,6.2-6.2c-6.3-5.6-14.2-8.9-22.6-9.3v8.7h-4.4v-8.7c-8.4.5-16.3,3.7-22.6,9.3l6.2,6.2-3.1,3.1-6.2-6.2c-5.6,6.3-8.9,14.2-9.3,22.6h8.7v4.4h-8.7c.5,8.4,3.7,16.3,9.3,22.6l3.1,3.1c4,3.5,8.7,6.1,13.9,7.6-4.4-5.9-4.1-14.5,1.5-20h0ZM35.3,46.3h11v-8.8h4.4v13.2h-15.3v-4.4Z"/>
</svg>