<?xml version="1.0" encoding="UTF-8"?>
<svg id="Layer_1" xmlns="http://www.w3.org/2000/svg" version="1.1" viewBox="0 0 97 97">
  <!-- Generator: Adobe Illustrator 29.4.0, SVG Export Plug-In . SVG Version: 2.1.0 Build 152)  -->
  <defs>
    <style>
      .st0 {
        fill: #d8ff08;
        stroke: #d8ff08;
        stroke-miterlimit: 10;
        stroke-width: .2px;
      }
    </style>
  </defs>
  <path class="st0" d="M82.7,41.5c0,22.8-15.6,41.9-36.7,47.4l.2-3.2v-1.2c0,0,.1-.5.1-.5v-1.8c.1,0,.9-9.6.9-9.6l.3-3.5v-.4s.1-1.3.1-1.3h0c0,0,.5-6.7.5-6.7h10.1l-.6,9.1h0s0,0,0,0c0,0,0,0,0,0,.7-.3,1.4-.7,2.1-1,.9-.5,1.8-1,2.6-1.6,1.4-.9,2.7-2,4-3.1.6-.5,1.1-1.1,1.7-1.6,11-11.5,13.1-28.8,13.4-31.6,0,0,0,0,0,0,.8,3.4,1.2,7,1.2,10.7ZM49.2,55.3c0,0-.1,0-.2,0-.6.3-1.3.5-2,.7-.5.2-1,.3-1.5.4-1.9.5-3.9.7-5.9.7s-3.9-.2-5.8-.7c-.7-.2-1.4-.4-2.1-.6-5-1.6-9.4-4.8-12.5-9.1-3.2-4.4-4.9-9.6-4.9-15s.7-6.6,1.9-9.7c.4-1,.9-2,1.5-3,3.1-5.4,8.1-9.4,14-11.4.7-.2,1.4-.4,2.1-.6,1.9-.4,3.8-.7,5.8-.7h0c2.5,0,4.9.4,7.2,1-.2,0-.4.1-.6.2-.6.2-1.2.4-1.8.7-1.6-.3-3.2-.5-4.8-.5h0c-1.8,0-3.7.2-5.5.6-.6.2-1.3.3-1.9.5-5.6,1.8-10.3,5.7-13.3,10.8-.5.9-1,1.8-1.4,2.8-1.2,2.9-1.8,6-1.8,9.2,0,5.1,1.6,10,4.7,14.2,3,4,7.1,7,11.8,8.6.6.2,1.3.4,1.9.5,3.6.8,7.4.8,11,0,.5-.1,1-.3,1.5-.4,0,0,0,0,.1,0,.5.2,1,.3,1.5.4.3,0,.6.1.9.2ZM78.5,31.2c0-13.6-11.1-24.8-24.7-24.7-1.9,0-3.8.2-5.6.7-.5.1-1,.2-1.4.4-.2,0-.4.1-.6.2-.6.2-1.2.4-1.8.7-4.4,1.8-8.1,4.9-10.8,8.8-.4.5-.7,1-1,1.6-.5.9-1,1.9-1.4,2.9-.7,1.6-1.2,3.4-1.5,5.2-.2,1.4-.4,2.8-.4,4.3,0,10.9,7.1,20.2,17,23.4.2,0,.3.1.5.2.5.2,1,.3,1.5.4.3,0,.6.1.9.2,1.5.3,3.1.5,4.7.5s3.3-.2,4.9-.5h0c.3,0,.5-.1.8-.2.4,0,.7-.2,1.1-.3.1,0,.3,0,.4-.1.6-.2,1.3-.4,1.9-.7,1.5-.6,2.8-1.5,3.8-2.6.8-.8,1.4-1.8,1.9-2.9,0,0,0,0,0,0h0c.2-.4.3-.8.4-1.2.2-.7.3-1.4.3-2.1h0c0-.8,0-1.7-.3-2.5-1.3-5.5-6.7-8.9-12.3-7.7-5.5,1.3-11-2.2-12.3-7.7-1.2-5.4,2.1-10.8,7.4-12.2,0,0,.2,0,.3,0,0,0,.2,0,.3,0,10.9-2.4,21.7,4.5,24.2,15.4.9,3.8.6,7.5-.5,10.9,1.4-3,2.1-6.4,2.1-10ZM47.7,67.3h0c0,0-.1,1.4-.1,1.4v.4c-1.3.8-2.6,1.4-3.9,2,0,0,0,0,0,0h0s-1,.4-1,.4v-1.1s.6-8.4.6-8.4h-8.7l-2,26.6c4.8-1.3,9.3-3.4,13.5-6.1.2-.1.4-.2.6-.4v1.8c-4.6,2.9-9.5,5-14.6,6.4l-1,.2,2.3-29.9h11.5l-.6,8.7c1.2-.6,2.4-1.3,3.6-2Z"/>
</svg>