<?xml version="1.0" encoding="UTF-8"?>
<svg id="Layer_1" xmlns="http://www.w3.org/2000/svg" version="1.1" viewBox="0 0 97 97">
  <!-- Generator: Adobe Illustrator 29.4.0, SVG Export Plug-In . SVG Version: 2.1.0 Build 152)  -->
  <defs>
    <style>
      .st0 {
        fill: #d8ff08;
        stroke: #d8ff08;
        stroke-miterlimit: 10;
        stroke-width: .2px;
      }
    </style>
  </defs>
  <path id="Hilight" class="st0" d="M17.3,50.9l6.5,4.1c.3.2.4.5.3.8,0,0-.5,1.5.2,3.6,0,.2.1.4.2.5,0,0,0,0,0,0l5.6-3.3c.7-.4,1.6-.7,2.4-.7,1.5,0,2.9.7,3.6,2,.8,1.3.7,3-.2,4.3,1.3.1,2.5.8,3.1,1.9.5.9.7,2,.4,3,2-.8,4.3-.2,5.3,1.6.5.9.7,1.9.4,3,2.1-1,4.5-.3,5.6,1.5,1,1.6.6,3.7-.8,5.1l4.3,2.5s0,0,0,0c.6.4,1.2.6,1.9.6s1.7-.4,2.2-1.1c.4-.6.5-1.3.4-2.1-.2-.8-.7-1.5-1.3-2h0s0,0,0,0c0,0,0,0,0,0l-7.7-5.9c-.3-.2-.4-.7-.1-1,.2-.3.7-.4,1-.1l7.7,5.8,2.1,1.5c.6.4,1.2.6,1.9.6s1.7-.4,2.2-1.1c.9-1.2.4-3-1-4,0,0,0,0,0,0l-8.9-6.2c-.3-.2-.4-.7-.2-1,.2-.3.7-.4,1-.2l8.9,6.2s0,0,0,0c0,0,0,0,0,0,0,0,0,0,0,0l1.7,1.2c.6.4,1.2.6,1.9.6s1.7-.4,2.2-1.1c.9-1.2.4-3-1-4l-.9-.6-10.1-6.4c-.3-.2-.4-.6-.2-1,.2-.3.6-.4,1-.2l10.1,6.4s0,0,0,0c0,0,0,0,0,0h0c.6.4,1.2.6,1.9.6s1.7-.4,2.2-1.1c.8-1.1.5-2.7-.6-3.7,0,0,0,0,0,0-.1-.1-.2-.2-.4-.3l-13.6-8.7c-2.7,3.1-5.9,5.8-9.5,7.8-.1,0-.2,0-.3,0s-.2,0-.3,0c-5.6-3.2-10.3-7.9-13.6-13.5-1.7-2.9-3-5.9-3.9-9.1l-3.8-2.4-9.6,15.3ZM60.2,50.5c1.4-.2,2.9-.8,4.6-1.8.3-.2.8-.1,1,.2.2.3.1.8-.2,1-2.3,1.4-4.3,2-6.1,2.1l13,8.3c1.1-2.6.5-4.3.5-4.4-.1-.3,0-.6.3-.8l6.5-4.1-9.6-15.3-3.8,2.4c-.9,3.2-2.2,6.3-3.9,9.1-.7,1.1-1.4,2.2-2.2,3.3h0ZM27.5,31.1c0-.4-.3-.7-.6-.9l-6.4-4c-.2-.1-.5-.2-.7-.2-.5,0-.9.2-1.2.7l-12.9,20.6c-.4.7-.2,1.5.4,2l6.4,4c.2.1.5.2.7.2.5,0,.9-.2,1.2-.7l12.9-20.6c.2-.3.3-.7.2-1.1h0ZM23.5,34.9c-.6,1-1.7,1.6-2.9,1.6h0c-.6,0-1.3-.2-1.8-.5-1.6-1-2-3.1-1.1-4.6.6-1,1.7-1.6,2.9-1.6s1.3.2,1.8.5c1.6,1,2,3.1,1.1,4.6ZM21.7,31.4c-.3-.2-.7-.3-1-.3-.7,0-1.3.3-1.7.9-.6.9-.3,2.1.6,2.7.3.2.7.3,1,.3.7,0,1.3-.3,1.7-.9.6-.9.3-2.1-.6-2.7h0ZM45.3,73.2l-2.5,1.4s0,0,0,0l-3.1,1.8s0,0,0,0c-.7.4-1.3,1.1-1.5,1.8-.2.7-.2,1.5.2,2.1.8,1.3,2.6,1.7,4.1.8l5.6-3.3c1.5-.9,2.1-2.6,1.3-3.9-.8-1.3-2.6-1.7-4.1-.8h0ZM42.1,73.4h0c.7-.4,1.3-1.1,1.5-1.8.2-.7.2-1.5-.2-2.1-.8-1.3-2.6-1.7-4.1-.8l-2.2,1.3s0,0,0,0l-3.4,2c-.7.4-1.3,1.1-1.5,1.8-.2.7-.2,1.5.2,2.1.8,1.3,2.6,1.7,4.1.8l5.6-3.3s0,0,0,0ZM37.9,66.9c.2-.7.2-1.5-.2-2.1-.8-1.3-2.6-1.7-4.1-.8l-5.1,3c-.1,0-.2.1-.4.2,0,0,0,0-.1,0-.7.4-1.3,1.1-1.5,1.8-.2.7-.2,1.5.2,2.1.8,1.3,2.6,1.7,4.1.8l5.6-3.3c.7-.4,1.3-1.1,1.5-1.8h0ZM33,62.8s0,0,0,0c0,0,0,0,0,0l.5-.3c1.5-.9,2.1-2.6,1.3-3.9-.5-.8-1.3-1.3-2.4-1.3s-1.2.2-1.7.5l-5.6,3.3c-1.5.9-2.1,2.6-1.3,3.9.5.8,1.3,1.3,2.4,1.3s1.2-.2,1.7-.5l5.1-3ZM82.6,52.8c.3.4.7.7,1.2.7s.5,0,.7-.2l6.4-4c.7-.4.9-1.3.4-2l-12.9-20.6c-.3-.4-.7-.7-1.2-.7s-.5,0-.7.2l-6.4,4c-.3.2-.5.5-.6.9,0,.4,0,.7.2,1.1l12.9,20.6ZM74.5,30.2c.5-.3,1.2-.5,1.8-.5,1.2,0,2.2.6,2.9,1.6,1,1.6.5,3.7-1.1,4.6-.5.3-1.2.5-1.8.5-1.2,0-2.2-.6-2.9-1.6-1-1.6-.5-3.7,1.1-4.6h0ZM76.3,35c.4,0,.7-.1,1-.3.9-.6,1.2-1.8.6-2.7-.4-.6-1-.9-1.7-.9s-.7.1-1,.3c-.9.6-1.2,1.8-.6,2.7.4.6,1,.9,1.7.9h0ZM48.5,59.2c10.9-6.5,17.7-18.4,17.7-31.1s0-1.8-.1-2.8l-17.6-9.9-17.6,9.9c0,1-.1,1.9-.1,2.8,0,12.7,6.8,24.6,17.7,31.1ZM38,36.7c0-.7.3-1.3.7-1.8.5-.5,1.1-.7,1.8-.7s1.3.3,1.8.7l4,4,8.1-11.4c.5-.7,1.2-1.1,2-1.1s1,.2,1.5.5c1.1.8,1.4,2.4.6,3.5l-9.8,13.8c-.4.6-1.1,1-1.8,1,0,0-.1,0-.2,0-.7,0-1.3-.3-1.8-.7l-6.1-6.1c-.5-.5-.7-1.1-.7-1.8h0Z"/>
</svg>