<?xml version="1.0" encoding="UTF-8"?>
<svg id="Layer_1" xmlns="http://www.w3.org/2000/svg" version="1.1" viewBox="0 0 97 97">
  <!-- Generator: Adobe Illustrator 29.4.0, SVG Export Plug-In . SVG Version: 2.1.0 Build 152)  -->
  <defs>
    <style>
      .st0 {
        fill: #d8ff08;
        stroke: #d8ff08;
        stroke-miterlimit: 10;
        stroke-width: .2px;
      }
    </style>
  </defs>
  <path class="st0" d="M47,25.6c-3.6,0-6.5,2.5-7.2,5.8,0,.4.2.8.6.8h13.2c.4,0,.7-.4.6-.8-.7-3.3-3.7-5.8-7.2-5.8ZM47,25.1c2.1,0,3.7-1.7,3.7-3.8s-1.7-3.8-3.7-3.8-3.8,1.7-3.8,3.8,1.7,3.8,3.8,3.8ZM15.1,16.7h5.4v-5.3l-5.4,5.3ZM47,25.6c-3.6,0-6.5,2.5-7.2,5.8,0,.4.2.8.6.8h13.2c.4,0,.7-.4.6-.8-.7-3.3-3.7-5.8-7.2-5.8ZM47,17.6c-2.1,0-3.8,1.7-3.8,3.8s1.7,3.8,3.8,3.8,3.7-1.7,3.7-3.8-1.7-3.8-3.7-3.8ZM62.6,52.8c-2.2,0-4.1,1.8-4.1,4v2h8.1v-2c0-2.2-1.8-4-4-4ZM62.6,62.3c-1.5,0-2.7,1.2-2.7,2.7s.5,1.8,1.3,2.3v4c0,.8.6,1.4,1.4,1.4s1.4-.6,1.4-1.4v-4c.8-.5,1.3-1.3,1.3-2.3,0-1.5-1.2-2.7-2.7-2.7ZM62.6,52.8c-2.2,0-4.1,1.8-4.1,4v2h8.1v-2c0-2.2-1.8-4-4-4ZM62.6,62.3c-1.5,0-2.7,1.2-2.7,2.7s.5,1.8,1.3,2.3v4c0,.8.6,1.4,1.4,1.4s1.4-.6,1.4-1.4v-4c.8-.5,1.3-1.3,1.3-2.3,0-1.5-1.2-2.7-2.7-2.7ZM62.6,41.7c-12.5,0-22.6,10.1-22.6,22.6s10.1,22.6,22.6,22.6,22.6-10.1,22.6-22.6-10.1-22.6-22.6-22.6ZM73.1,74.7c0,.8-.6,1.4-1.4,1.4h-18.3c-.8,0-1.4-.6-1.4-1.4v-14.5c0-.8.6-1.4,1.4-1.4h1.7v-2c0-4.1,3.4-7.5,7.5-7.5s7.5,3.4,7.5,7.5v2h1.7c.8,0,1.4.6,1.4,1.4v14.5ZM62.6,52.8c-2.2,0-4.1,1.8-4.1,4v2h8.1v-2c0-2.2-1.8-4-4-4ZM62.6,62.3c-1.5,0-2.7,1.2-2.7,2.7s.5,1.8,1.3,2.3v4c0,.8.6,1.4,1.4,1.4s1.4-.6,1.4-1.4v-4c.8-.5,1.3-1.3,1.3-2.3,0-1.5-1.2-2.7-2.7-2.7ZM61,10.1H23v7.9c0,.7-.6,1.3-1.3,1.3h-7.9v52.5c0,.9.7,1.6,1.6,1.6h23.7c-1.1-2.8-1.7-5.8-1.7-9,0-13.9,11.3-25.2,25.2-25.2V11.7c0-.9-.7-1.6-1.6-1.6ZM19.3,24.2h10.9c.7,0,1.3.6,1.3,1.3s-.6,1.3-1.3,1.3h-10.9c-.7,0-1.3-.6-1.3-1.3s.6-1.3,1.3-1.3ZM19.3,31.5h10.9c.7,0,1.3.6,1.3,1.3s-.6,1.3-1.3,1.3h-10.9c-.7,0-1.3-.6-1.3-1.3s.6-1.3,1.3-1.3ZM34.9,63.4h-15.6c-.7,0-1.3-.6-1.3-1.3s.6-1.3,1.3-1.3h15.6c.7,0,1.3.6,1.3,1.3s-.6,1.3-1.3,1.3ZM36.5,56h-17.2c-.7,0-1.3-.6-1.3-1.3s.6-1.3,1.3-1.3h17.2c.7,0,1.3.6,1.3,1.3s-.6,1.3-1.3,1.3ZM40.5,48.7h-21.2c-.7,0-1.3-.6-1.3-1.3s.6-1.3,1.3-1.3h21.2c.7,0,1.3.6,1.3,1.3s-.6,1.3-1.3,1.3ZM49,41.4h-29.6c-.7,0-1.3-.6-1.3-1.3s.6-1.3,1.3-1.3h29.6c.7,0,1.3.6,1.3,1.3s-.6,1.3-1.3,1.3ZM57,32.6c0,.4-.3.8-.8.8h-18.5c-.4,0-.8-.3-.8-.8V15.7c0-.4.3-.8.8-.8h18.5c.4,0,.8.3.8.8v16.9ZM47,25.6c-3.6,0-6.5,2.5-7.2,5.8,0,.4.2.8.6.8h13.2c.4,0,.7-.4.6-.8-.7-3.3-3.7-5.8-7.2-5.8ZM47,25.1c2.1,0,3.7-1.7,3.7-3.8s-1.7-3.8-3.7-3.8-3.8,1.7-3.8,3.8,1.7,3.8,3.8,3.8Z"/>
</svg>