<?xml version="1.0" encoding="UTF-8"?>
<svg id="Layer_1" xmlns="http://www.w3.org/2000/svg" version="1.1" viewBox="0 0 97 97">
  <!-- Generator: Adobe Illustrator 29.4.0, SVG Export Plug-In . SVG Version: 2.1.0 Build 152)  -->
  <defs>
    <style>
      .st0 {
        fill: #d8ff08;
      }
    </style>
  </defs>
  <path class="st0" d="M66.8,48.3c0,1-.8,1.7-1.7,1.7s-1.7-.8-1.7-1.7.8-1.7,1.7-1.7,1.7.8,1.7,1.7ZM77.4,59.7h4.2c-2.1,6.1-5.9,11.5-10.9,15.6.1-.4.2-.9.2-1.4,0-3.1-2.5-5.6-5.6-5.6s-5.6,2.5-5.6,5.6.3,2.2.9,3.1c-2.4.7-4.1,2.8-4.3,5.4-2.5.6-5.2.9-7.8.9s-5.5-.3-8.2-1c-.2-2.5-2-4.6-4.3-5.3.6-.9.9-1.9.9-3.1,0-3.1-2.5-5.6-5.6-5.6s-5.6,2.5-5.6,5.6,0,.6,0,.9c-4.7-4.1-8.4-9.3-10.4-15.2h4.2c1.9,0,3.5-1.6,3.5-3.5v-4.9c0-2.7-1.8-5-4.3-5.8.6-.9.9-1.9.9-3.1,0-2.7-1.9-4.9-4.3-5.5,1.5-4.4,3.9-8.4,6.9-11.9h0c0,2,1.6,3.6,3.5,3.6h11c1.9,0,3.5-1.6,3.5-3.5v-4.9c0-2.2-1.2-4.1-2.9-5.2,3.6-1.2,7.3-1.8,11.1-1.8s7.4.6,10.9,1.7c-1.8,1-3.1,3-3.1,5.3v4.9c0,1.9,1.6,3.5,3.5,3.5h11c1.9,0,3.5-1.6,3.5-3.5v-.6c3.3,3.6,5.8,7.8,7.4,12.4-2.5.6-4.3,2.8-4.3,5.5s.3,2.2.9,3.1c-2.5.7-4.3,3.1-4.3,5.8v4.9c0,1.9,1.6,3.5,3.5,3.5h0ZM69.6,48.3c0-2.5-2-4.5-4.5-4.5s-3.7,1.3-4.3,3.1h-3.5c-.3-2-1.3-3.8-2.8-5.2l1.3-2.3c.3,0,.6.1.9.1s.8,0,1.2-.2c1.2-.3,2.1-1.1,2.7-2.1,1.2-2.2.5-4.9-1.7-6.2h0c-2.2-1.2-4.9-.5-6.2,1.7-.6,1-.8,2.3-.5,3.4.2.7.5,1.3,1,1.9l-1.2,2.2c-1.1-.5-2.4-.8-3.7-.8s-2.6.3-3.7.8l-1.2-2.2c.5-.5.8-1.2,1-1.8.3-1.2.2-2.4-.5-3.4-1.2-2.2-4-2.9-6.2-1.7,0,0,0,0,0,0-2.2,1.2-2.9,4-1.7,6.2.8,1.4,2.4,2.3,3.9,2.3s.6,0,.9,0l1.3,2.3c-1.5,1.3-2.5,3.1-2.8,5.2h-3.5c-.6-1.8-2.3-3.1-4.3-3.1s-4.5,2-4.5,4.5,2,4.5,4.5,4.5,3.7-1.3,4.3-3.1h3.5c.4,2.4,1.7,4.5,3.6,5.8l-2.2,3.7c-1.9-.4-3.8.4-4.9,2.2-.6,1-.8,2.3-.5,3.4.3,1.2,1.1,2.1,2.1,2.7.7.4,1.5.6,2.3.6,1.6,0,3.1-.8,3.9-2.3.6-1,.8-2.3.5-3.4-.2-.7-.5-1.3-1-1.9l2.2-3.9c.8.3,1.7.4,2.7.4s1.8-.1,2.7-.4l2.2,3.9c-.5.5-.8,1.2-1,1.9-.3,1.2-.2,2.4.5,3.4.6,1,1.6,1.8,2.7,2.1.4.1.8.2,1.2.2.8,0,1.6-.2,2.3-.6,1-.6,1.8-1.6,2.1-2.7.3-1.2.2-2.4-.5-3.4-1-1.7-3-2.5-4.9-2.2l-2.2-3.7c1.9-1.4,3.2-3.4,3.6-5.8h3.5c.6,1.8,2.3,3.1,4.3,3.1s4.5-2,4.5-4.5h0ZM85.9,48h-5.9c-1.8,0-3.2,1.5-3.2,3.2v4.9c0,.4.3.7.7.7h11c.4,0,.7-.3.7-.7v-4.9c0-1.8-1.5-3.2-3.2-3.2h0ZM39.4,33.5c-.8.5-1.1,1.5-.6,2.4.5.8,1.5,1.1,2.4.6,0,0,0,0,0,0h0c.4-.2.7-.6.8-1,.1-.4,0-.9-.2-1.3-.5-.8-1.5-1.1-2.4-.6h0ZM34.1,74c0-1.5-1.3-2.8-2.8-2.8s-2.8,1.3-2.8,2.8,1.3,2.8,2.8,2.8,2.8-1.3,2.8-2.8ZM34.3,79.6h-5.9c-1.8,0-3.2,1.5-3.2,3.2v4.9c0,.4.3.7.7.7h11c.4,0,.7-.3.7-.7v-4.9c0-1.8-1.5-3.2-3.2-3.2h0ZM68.3,79.6h-5.9c-1.8,0-3.2,1.5-3.2,3.2v4.9c0,.4.3.7.7.7h11c.4,0,.7-.3.7-.7v-4.9c0-1.8-1.5-3.2-3.2-3.2ZM55.9,36.5c.4.2.9.3,1.3.2s.8-.4,1-.8c.5-.8.2-1.9-.6-2.4-.3-.2-.6-.2-.9-.2-.6,0-1.2.3-1.5.9-.2.4-.3.9-.2,1.3.1.4.4.8.8,1h0ZM31.9,46.5c-1,0-1.7.8-1.7,1.7s.8,1.7,1.7,1.7,1.7-.8,1.7-1.7-.8-1.7-1.7-1.7ZM20.3,56.2v-4.9c0-1.8-1.5-3.2-3.2-3.2h-6c-1.8,0-3.2,1.5-3.2,3.2v4.9c0,.4.3.7.7.7h11c.4,0,.7-.3.7-.7ZM68.1,74c0-1.5-1.3-2.8-2.8-2.8s-2.8,1.3-2.8,2.8,1.3,2.8,2.8,2.8,2.8-1.3,2.8-2.8ZM80.1,42.4c0,1.5,1.3,2.8,2.8,2.8s2.8-1.3,2.8-2.8-1.3-2.8-2.8-2.8-2.8,1.3-2.8,2.8ZM65.3,14.2c1.5,0,2.8-1.3,2.8-2.8s-1.3-2.8-2.8-2.8-2.8,1.3-2.8,2.8,1.3,2.8,2.8,2.8ZM59.1,25.1c0,.4.3.7.7.7h11c.4,0,.7-.3.7-.7v-4.9c0-1.8-1.5-3.2-3.2-3.2h-5.9c-1.8,0-3.2,1.5-3.2,3.2v4.9ZM14.1,45.2c1.5,0,2.8-1.3,2.8-2.8s-1.3-2.8-2.8-2.8-2.8,1.3-2.8,2.8,1.3,2.8,2.8,2.8ZM25.8,25.8h11c.4,0,.7-.3.7-.7v-4.9c0-1.8-1.5-3.2-3.2-3.2h-5.9c-1.8,0-3.2,1.5-3.2,3.2v4.9c0,.4.3.7.7.7h0ZM31.3,14.2c1.5,0,2.8-1.3,2.8-2.8s-1.3-2.8-2.8-2.8-2.8,1.3-2.8,2.8,1.3,2.8,2.8,2.8ZM56.3,65.3c.4.1.9,0,1.3-.2,0,0,0,0,0,0,.4-.2.7-.6.8-1,.1-.4,0-.9-.2-1.3-.3-.5-.9-.9-1.5-.9s-.6,0-.9.2c-.4.2-.7.6-.8,1-.1.4,0,.9.2,1.3.2.4.6.7,1,.8h0ZM41.1,62.2c-.3-.2-.6-.2-.9-.2-.6,0-1.2.3-1.5.9-.2.4-.3.9-.2,1.3.1.4.4.8.8,1h0c.8.5,1.9.2,2.4-.6.2-.4.3-.9.2-1.3-.1-.4-.4-.8-.8-1h0ZM48.5,42.1c-3.4,0-6.1,2.7-6.1,6.1s2.7,6.1,6.1,6.1,6.1-2.7,6.1-6.1-2.7-6.1-6.1-6.1Z"/>
</svg>