<?xml version="1.0" encoding="UTF-8"?>
<svg id="Layer_1" xmlns="http://www.w3.org/2000/svg" version="1.1" viewBox="0 0 16 16">
  <!-- Generator: Adobe Illustrator 29.4.0, SVG Export Plug-In . SVG Version: 2.1.0 Build 152)  -->
  <defs>
    <style>
      .st0 {
        fill: #6c707e;
      }
    </style>
  </defs>
  <path class="st0" d="M14.6,4l-4.1,4,4.1,4c0-.2.1-.3.1-.5v-7.1c0-.2,0-.4-.1-.5Z"/>
  <path class="st0" d="M13.5,3.3H2.5c-.2,0-.4,0-.5.1l5.2,5.2c.5.5,1.2.5,1.7,0l5.2-5.2c-.2,0-.3-.1-.5-.1Z"/>
  <path class="st0" d="M1.4,4c0,.2-.1.3-.1.5v7.1c0,.2,0,.4.1.5l4.1-4L1.4,4Z"/>
  <path class="st0" d="M10,8.6l-.6.6c-.8.8-2,.8-2.8,0l-.6-.6L2,12.6c.2,0,.3.1.5.1h11.1c.2,0,.4,0,.5-.1l-4.1-4Z"/>
</svg>