<?xml version="1.0" encoding="UTF-8"?>
<svg id="Layer_1" xmlns="http://www.w3.org/2000/svg" version="1.1" viewBox="0 0 56.7 56.7">
  <!-- Generator: Adobe Illustrator 29.4.0, SVG Export Plug-In . SVG Version: 2.1.0 Build 152)  -->
  <defs>
    <style>
      .st0 {
        fill: #111;
      }
    </style>
  </defs>
  <path class="st0" d="M28.3,4.1C14.7,4.1,3.6,15.2,3.6,28.9s11.1,24.8,24.8,24.8,24.8-11.1,24.8-24.8S42,4.1,28.3,4.1ZM16.4,18.7h23.9c.4,0,.8.1,1.1.3l-11.2,11.2c-1,1-2.6,1-3.6,0l-11.2-11.2c.3-.2.7-.3,1.1-.3ZM13.8,36.5v-15.3c0-.4,0-.8.3-1.1l8.8,8.7-8.8,8.7c-.2-.3-.3-.7-.3-1.1ZM40.3,39.1h-23.9c-.4,0-.8-.1-1.1-.3l8.8-8.7,1.2,1.2c1.7,1.7,4.4,1.7,6,0l1.2-1.2,8.8,8.7c-.3.2-.7.3-1.1.3ZM42.8,36.5c0,.4,0,.8-.3,1.1l-8.8-8.7,8.8-8.7c.2.3.3.7.3,1.1v15.3Z"/>
</svg>