<?xml version="1.0" encoding="UTF-8"?>
<svg id="Layer_1" xmlns="http://www.w3.org/2000/svg" version="1.1" viewBox="0 0 16 16">
  <!-- Generator: Adobe Illustrator 29.4.0, SVG Export Plug-In . SVG Version: 2.1.0 Build 152)  -->
  <defs>
    <style>
      .st0 {
        fill: #b9b9b9;
      }
    </style>
  </defs>
  <path class="st0" d="M13.3,3.6H2.7c-.5,0-1,.5-1,1v6.8c0,.5.5,1,1,1h10.6c.6,0,1-.5,1-1v-6.8c0-.5-.4-1-1-1ZM13.4,4.1l-.2.2c-.2.2-4.2,4.2-4.3,4.3-.2.2-.6.4-.9.4s-.6-.1-.9-.4c0,0-4-4-4.3-4.3l-.2-.2h10.9ZM2.2,4.5l3.5,3.5-3.5,3.5v-7.1ZM2.6,11.9l3.6-3.5.6.6c.3.3.8.5,1.2.5s.9-.2,1.2-.5l.6-.6,3.5,3.5H2.6ZM13.8,11.5l-3.6-3.5,3.6-3.5v7.1Z"/>
</svg>