<svg width="361" height="360" viewBox="0 0 361 360" fill="none" xmlns="http://www.w3.org/2000/svg">
<path d="M174.324 8.29014C174.324 7.18462 174.095 6.09108 173.651 5.07843C173.208 4.06577 172.559 3.15594 171.747 2.40626C170.934 1.65657 169.975 1.08327 168.93 0.722491C167.885 0.361713 166.777 0.221276 165.675 0.310014C131.978 3.02357 99.7245 15.1648 72.6026 35.3456C45.4806 55.5263 24.585 82.932 12.3048 114.429C0.0246403 145.926 -3.14435 180.243 3.16017 213.456C9.4647 246.669 24.9883 277.438 47.9559 302.244C48.707 303.055 49.6179 303.702 50.6313 304.144C51.6447 304.586 52.7387 304.813 53.8442 304.811C54.9497 304.809 56.0428 304.578 57.0547 304.133C58.0666 303.688 58.9754 303.038 59.7236 302.224L83.1199 276.781C84.463 275.32 85.2159 273.413 85.2325 271.429C85.2491 269.445 84.5282 267.525 83.2098 266.042C67.3313 248.184 56.6954 226.286 52.4757 202.765C48.256 179.244 50.6166 155.015 59.297 132.75C67.9774 110.486 82.6402 91.0532 101.667 76.5957C120.694 62.1382 143.345 53.2185 167.121 50.8208C169.095 50.6217 170.925 49.6966 172.256 48.2248C173.587 46.753 174.324 44.8395 174.324 42.8552V8.29014Z" fill="#6A8BE7"/>
<path d="M68.2761 310.092C67.5278 310.906 66.9562 311.866 66.5972 312.911C66.2382 313.957 66.0997 315.065 66.1903 316.167C66.2809 317.269 66.5987 318.34 67.1237 319.313C67.6487 320.286 68.3696 321.139 69.2408 321.82C106.197 350.689 152.955 364.009 199.577 358.947C200.676 358.828 201.738 358.482 202.697 357.932C203.656 357.382 204.49 356.639 205.148 355.75C205.806 354.862 206.272 353.846 206.518 352.769C206.764 351.691 206.784 350.574 206.577 349.488L200.099 315.532C199.727 313.583 198.645 311.842 197.062 310.645C195.479 309.449 193.508 308.883 191.532 309.058C159.696 311.866 127.945 302.821 102.368 283.659C100.78 282.469 98.8065 281.911 96.8307 282.094C94.8548 282.276 93.0172 283.186 91.6741 284.647L68.2761 310.092Z" fill="#2559FF"/>
<path d="M217.991 347.308C218.198 348.394 218.628 349.425 219.254 350.337C219.879 351.248 220.686 352.02 221.625 352.605C222.564 353.189 223.613 353.572 224.707 353.731C225.801 353.889 226.916 353.82 227.982 353.526C273.192 341.07 311.763 311.473 335.496 271.028C336.055 270.074 336.411 269.015 336.541 267.917C336.671 266.819 336.573 265.706 336.251 264.649C335.93 263.591 335.393 262.611 334.674 261.771C333.956 260.931 333.071 260.249 332.075 259.768L300.956 244.724C299.169 243.86 297.126 243.691 295.222 244.249C293.317 244.806 291.688 246.051 290.649 247.742C273.923 274.975 247.731 295.073 217.097 304.181C215.195 304.746 213.571 305.998 212.539 307.693C211.508 309.388 211.143 311.406 211.514 313.355L217.991 347.308Z" fill="#6438FC"/>
<path d="M337.134 249.306C338.13 249.787 339.214 250.057 340.319 250.098C341.423 250.14 342.525 249.952 343.553 249.547C344.582 249.142 345.515 248.528 346.295 247.744C347.075 246.96 347.683 246.023 348.083 244.993C358.512 218.1 362.33 189.096 359.217 160.421C359.098 159.322 358.752 158.259 358.202 157.3C357.652 156.341 356.909 155.507 356.02 154.849C355.132 154.192 354.116 153.725 353.039 153.479C351.961 153.233 350.844 153.213 349.758 153.421L315.804 159.898C313.855 160.27 312.113 161.352 310.917 162.935C309.72 164.518 309.154 166.489 309.329 168.465C310.999 187.394 308.489 206.458 301.977 224.31C301.297 226.174 301.333 228.224 302.079 230.063C302.825 231.902 304.227 233.398 306.013 234.262L337.134 249.306Z" fill="#3EC9A6"/>
<path d="M347.579 142.006C348.665 141.799 349.696 141.369 350.608 140.743C351.52 140.118 352.292 139.311 352.876 138.372C353.46 137.433 353.844 136.384 354.002 135.29C354.161 134.196 354.091 133.081 353.797 132.015C346.136 104.207 331.909 78.6462 312.313 57.4813C311.562 56.6701 310.651 56.0233 309.637 55.5815C308.624 55.1398 307.53 54.9127 306.424 54.9146C305.319 54.9165 304.226 55.1473 303.214 55.5925C302.202 56.0377 301.293 56.6877 300.545 57.5015L277.149 82.9447C275.805 84.4053 275.053 86.3127 275.036 88.2968C275.019 90.281 275.74 92.2006 277.059 93.6835C289.685 107.884 299.037 124.686 304.452 142.9C305.018 144.802 306.269 146.426 307.965 147.458C309.66 148.489 311.677 148.854 313.626 148.483L347.579 142.006Z" fill="#FAA453"/>
<path d="M291.99 49.6358C292.739 48.822 293.31 47.8621 293.669 46.8165C294.028 45.7709 294.167 44.6623 294.076 43.5605C293.986 42.4587 293.668 41.3876 293.143 40.4147C292.618 39.4418 291.897 38.5882 291.026 37.9076C282.272 31.0693 272.904 25.0555 263.043 19.9428C262.061 19.434 260.985 19.134 259.882 19.0616C258.779 18.9892 257.673 19.1461 256.633 19.5224C255.594 19.8986 254.643 20.4861 253.842 21.2478C253.041 22.0095 252.406 22.9288 251.977 23.9479L238.583 55.8123C237.814 57.6415 237.752 59.691 238.408 61.5635C239.065 63.436 240.393 64.998 242.136 65.9466C247.628 68.9357 252.897 72.318 257.901 76.0672C259.488 77.2569 261.462 77.8146 263.438 77.632C265.413 77.4494 267.251 76.5396 268.594 75.079L291.99 49.6358Z" fill="#007186"/>
<path d="M241.265 19.4446C241.693 18.4255 241.906 17.3287 241.889 16.2233C241.873 15.1179 241.628 14.0279 241.169 13.0219C240.711 12.016 240.049 11.1158 239.225 10.3783C238.402 9.64077 237.434 9.08179 236.384 8.73657C229.182 6.36909 221.837 4.45869 214.394 3.01674C213.309 2.80648 212.191 2.82328 211.113 3.06608C210.034 3.30888 209.018 3.7724 208.127 4.42747C207.237 5.08254 206.492 5.91496 205.939 6.87225C205.386 7.82955 205.037 8.89099 204.915 9.9897L201.086 44.3421C200.866 46.3141 201.386 48.2975 202.546 49.9076C203.705 51.5178 205.421 52.6399 207.362 53.0565C210.994 53.8364 214.591 54.7721 218.143 55.8609C220.04 56.4424 222.086 56.2987 223.883 55.4577C225.68 54.6166 227.101 53.1381 227.87 51.3089L241.265 19.4446Z" fill="#FF4643"/>
<path d="M193.845 4.40128C193.904 3.86574 193.854 3.32366 193.697 2.80817C193.54 2.29269 193.28 1.81464 192.932 1.40324C192.584 0.991853 192.156 0.655765 191.673 0.41554C191.191 0.175315 190.665 0.0359932 190.127 0.00610137C189.589 -0.0237904 189.05 0.0563748 188.544 0.241689C188.038 0.427004 187.575 0.713577 187.184 1.08388C186.792 1.45419 186.481 1.90045 186.267 2.39538C186.054 2.8903 185.944 3.4235 185.944 3.96235V48.9027C185.944 49.2773 186.088 49.6377 186.345 49.9099C186.603 50.182 186.955 50.3452 187.329 50.366C187.703 50.3868 188.071 50.2635 188.357 50.0216C188.642 49.7796 188.825 49.4374 188.866 49.0651L193.845 4.40128Z" fill="#73D8EA"/>
</svg>
