<?xml version="1.0" encoding="UTF-8"?>
<svg id="Layer_1" xmlns="http://www.w3.org/2000/svg" version="1.1" viewBox="0 0 16 16">
  <!-- Generator: Adobe Illustrator 29.4.0, SVG Export Plug-In . SVG Version: 2.1.0 Build 152)  -->
  <defs>
    <style>
      .st0 {
        fill: #6c707e;
      }
    </style>
  </defs>
  <path class="st0" d="M8.7,5c0,.4-.3.7-.7.7s-.7-.3-.7-.7.3-.7.7-.7.7.3.7.7ZM8,6.6c-.2,0-.4.2-.4.4v4.2c0,.2.2.4.4.4s.4-.2.4-.4v-4.2c0-.2-.2-.4-.4-.4ZM15.5,8c0,4.1-3.4,7.5-7.5,7.5S.5,12.1.5,8,3.9.5,8,.5s7.5,3.4,7.5,7.5ZM14.6,8c0-3.6-2.9-6.6-6.6-6.6S1.4,4.4,1.4,8s2.9,6.6,6.6,6.6,6.6-3,6.6-6.6Z"/>
</svg>