<?xml version="1.0" encoding="UTF-8"?>
<svg id="Layer_1" xmlns="http://www.w3.org/2000/svg" version="1.1" viewBox="0 0 48 48">
  <!-- Generator: Adobe Illustrator 29.4.0, SVG Export Plug-In . SVG Version: 2.1.0 Build 152)  -->
  <defs>
    <style>
      .st0 {
        fill: #d8ff08;
      }
    </style>
  </defs>
  <path class="st0" d="M37.7,14.6l-8.9-8.8c-.1-.1-.3-.2-.5-.2h-15.5c-1.6,0-2.9,1.3-2.9,2.9v31.1c0,1.6,1.3,2.9,2.9,2.9h22.1c1.6,0,2.9-1.3,2.9-2.9V15.1c0-.2,0-.4-.2-.5ZM29.1,7.8l6.6,6.6h-5c-.9,0-1.6-.7-1.6-1.5v-5ZM36.6,39.5c0,.9-.7,1.6-1.6,1.6H13c-.9,0-1.6-.7-1.6-1.6V8.4c0-.9.7-1.5,1.6-1.5h14.8v6c0,1.6,1.3,2.9,2.9,2.9h6v23.8Z"/>
  <path class="st0" d="M31.3,21.8c0,.4-.3.7-.7.7h-13.3c-.4,0-.7-.3-.7-.7s.3-.7.7-.7h13.3c.4,0,.7.3.7.7Z"/>
  <path class="st0" d="M31.3,26.3c0,.4-.3.7-.7.7h-13.3c-.4,0-.7-.3-.7-.7s.3-.7.7-.7h13.3c.4,0,.7.3.7.7Z"/>
  <path class="st0" d="M31.3,30.7c0,.4-.3.7-.7.7h-13.3c-.4,0-.7-.3-.7-.7s.3-.7.7-.7h13.3c.4,0,.7.3.7.7Z"/>
  <path class="st0" d="M26.9,35.1c0,.4-.3.7-.7.7h-8.9c-.4,0-.7-.3-.7-.7s.3-.7.7-.7h8.9c.4,0,.7.3.7.7Z"/>
</svg>