<?xml version="1.0" encoding="UTF-8"?>
<svg id="Layer_1" xmlns="http://www.w3.org/2000/svg" version="1.1" viewBox="0 0 16 16">
  <!-- Generator: Adobe Illustrator 29.4.0, SVG Export Plug-In . SVG Version: 2.1.0 Build 152)  -->
  <defs>
    <style>
      .st0 {
        fill: #d8ff08;
      }
    </style>
  </defs>
  <path class="st0" d="M13.5,4.3l-3.5-3.5c0,0-.1,0-.2,0H3.6c-.6,0-1.2.5-1.2,1.1v12.4c0,.6.5,1.2,1.2,1.2h8.8c.6,0,1.1-.5,1.1-1.2V4.5c0,0,0-.1,0-.2ZM10,1.6l2.6,2.6h-2c-.3,0-.6-.3-.6-.6V1.6ZM13,14.2c0,.3-.3.6-.6.6H3.6c-.3,0-.6-.3-.6-.6V1.8c0-.3.3-.6.6-.6h5.9v2.4c0,.6.5,1.1,1.2,1.1h2.4v9.5ZM10.9,7.1c0,.2-.1.3-.3.3h-5.3c-.1,0-.3-.1-.3-.3s.1-.3.3-.3h5.3c.1,0,.3.1.3.3ZM10.9,8.9c0,.2-.1.3-.3.3h-5.3c-.1,0-.3-.1-.3-.3s.1-.3.3-.3h5.3c.1,0,.3.1.3.3ZM10.9,10.7c0,.1-.1.3-.3.3h-5.3c-.1,0-.3-.1-.3-.3s.1-.3.3-.3h5.3c.1,0,.3.1.3.3ZM9.1,12.4c0,.1-.1.3-.3.3h-3.5c-.1,0-.3-.1-.3-.3s.1-.3.3-.3h3.5c.1,0,.3.1.3.3Z"/>
</svg>