<?xml version="1.0" encoding="UTF-8"?>
<svg id="Layer_1" xmlns="http://www.w3.org/2000/svg" version="1.1" viewBox="0 0 16 16">
  <!-- Generator: Adobe Illustrator 29.4.0, SVG Export Plug-In . SVG Version: 2.1.0 Build 152)  -->
  <defs>
    <style>
      .st0 {
        fill: #6c707e;
      }
    </style>
  </defs>
  <path class="st0" d="M12.4,9.9c-.3,0-.4.2-.4.4s.1.4.4.4c.2,0,.4-.2.4-.4h0c0-.2-.2-.4-.4-.4ZM12.4,9.9c-.3,0-.4.2-.4.4s.1.4.4.4c.2,0,.4-.2.4-.4h0c0-.2-.2-.4-.4-.4ZM12.4,9.9c-.3,0-.4.2-.4.4s.1.4.4.4c.2,0,.4-.2.4-.4h0c0-.2-.2-.4-.4-.4ZM12.4,9.9c-.3,0-.4.2-.4.4s.1.4.4.4c.2,0,.4-.2.4-.4h0c0-.2-.2-.4-.4-.4ZM12.4,9.9c-.3,0-.4.2-.4.4s.1.4.4.4c.2,0,.4-.2.4-.4h0c0-.2-.2-.4-.4-.4ZM12.4,9.9c-.3,0-.4.2-.4.4s.1.4.4.4c.2,0,.4-.2.4-.4h0c0-.2-.2-.4-.4-.4ZM12.4,9.9c-.3,0-.4.2-.4.4s.1.4.4.4c.2,0,.4-.2.4-.4h0c0-.2-.2-.4-.4-.4ZM12.4,9.9c-.3,0-.4.2-.4.4s.1.4.4.4c.2,0,.4-.2.4-.4h0c0-.2-.2-.4-.4-.4ZM14.9,4.3c.1,0,.2-.1.2-.3v-.6c0-1.4-1.2-2.6-2.6-2.6H3.4c-.7,0-1.4.3-1.8.8-.5.5-.7,1.2-.7,1.9v8.5c0,1.8,1.4,3.2,3.2,3.2h8.6c1.4,0,2.6-1.2,2.6-2.6v-4.5c0-1.4-1.2-2.6-2.6-2.6H3.4c-1.1,0-2-.9-2.1-2,0-.5.2-1.1.6-1.5s1-.7,1.5-.7h9.1c1.1,0,2.1.9,2.1,2.1v.6c0,.2.1.3.3.3ZM1.9,5.5c.5.3,1,.5,1.6.5h9.1c1.1,0,2.1.9,2.1,2.1v4.5c0,1.2-.9,2.1-2.1,2.1H4c-1.5,0-2.7-1.2-2.7-2.7v-6.9l.5.4ZM12.4,10.8c.2,0,.4-.2.4-.4h0c0-.2-.2-.4-.4-.4s-.4.2-.4.4.1.4.4.4ZM12.4,9.9c-.3,0-.4.2-.4.4s.1.4.4.4c.2,0,.4-.2.4-.4h0c0-.2-.2-.4-.4-.4ZM12.4,9.9c-.3,0-.4.2-.4.4s.1.4.4.4c.2,0,.4-.2.4-.4h0c0-.2-.2-.4-.4-.4ZM12.4,9.9c-.3,0-.4.2-.4.4s.1.4.4.4c.2,0,.4-.2.4-.4h0c0-.2-.2-.4-.4-.4ZM12.4,9.9c-.3,0-.4.2-.4.4s.1.4.4.4c.2,0,.4-.2.4-.4h0c0-.2-.2-.4-.4-.4ZM12.4,9.9c-.3,0-.4.2-.4.4s.1.4.4.4c.2,0,.4-.2.4-.4h0c0-.2-.2-.4-.4-.4ZM12.4,9.9c-.3,0-.4.2-.4.4s.1.4.4.4c.2,0,.4-.2.4-.4h0c0-.2-.2-.4-.4-.4ZM12.4,9.9c-.3,0-.4.2-.4.4s.1.4.4.4c.2,0,.4-.2.4-.4h0c0-.2-.2-.4-.4-.4ZM12.4,9.9c-.3,0-.4.2-.4.4s.1.4.4.4c.2,0,.4-.2.4-.4h0c0-.2-.2-.4-.4-.4ZM12.6,3.2H3.4c-.2,0-.2.1-.2.3s0,.2.3.2h9.1c.1,0,.3-.1.3-.2s-.1-.3-.3-.3Z"/>
</svg>