<?xml version="1.0" encoding="UTF-8"?>
<svg id="Layer_1" xmlns="http://www.w3.org/2000/svg" version="1.1" viewBox="0 0 48 48">
  <!-- Generator: Adobe Illustrator 29.4.0, SVG Export Plug-In . SVG Version: 2.1.0 Build 152)  -->
  <defs>
    <style>
      .st0 {
        fill: #d8ff08;
      }
    </style>
  </defs>
  <path class="st0" d="M18.6,5.6h-8.7c-2.4,0-4.4,1.9-4.4,4.4v8.8c0,2.4,1.9,4.4,4.4,4.4h8.7c2.4,0,4.4-1.9,4.4-4.4v-8.8c0-2.4-2-4.4-4.4-4.4ZM21.6,18.7c0,1.6-1.3,2.9-2.9,2.9h-8.7c-1.6,0-3-1.3-3-2.9v-8.8c0-1.6,1.3-3,3-3h8.7c1.6,0,2.9,1.3,2.9,3v8.8Z"/>
  <path class="st0" d="M38.1,5.6h-8.7c-2.4,0-4.4,1.9-4.4,4.4v8.8c0,2.4,1.9,4.4,4.4,4.4h8.7c2.4,0,4.4-1.9,4.4-4.4v-8.8c0-2.4-2-4.4-4.4-4.4ZM41,18.7c0,1.6-1.3,2.9-2.9,2.9h-8.7c-1.6,0-3-1.3-3-2.9v-8.8c0-1.6,1.3-3,3-3h8.7c1.6,0,2.9,1.3,2.9,3v8.8Z"/>
  <path class="st0" d="M18.6,24.9h-8.7c-2.4,0-4.4,2-4.4,4.4v8.8c0,2.4,1.9,4.4,4.4,4.4h8.7c2.4,0,4.4-2,4.4-4.4v-8.8c0-2.4-2-4.4-4.4-4.4ZM21.6,38.1c0,1.6-1.3,2.9-2.9,2.9h-8.7c-1.6,0-3-1.3-3-2.9v-8.8c0-1.6,1.3-2.9,3-2.9h8.7c1.6,0,2.9,1.3,2.9,2.9v8.8Z"/>
  <path class="st0" d="M41,29.6v-.3c0-1.6-1.3-2.9-2.9-2.9h-8.7c-1.6,0-3,1.3-3,2.9v8.8c0,1.6,1.3,2.9,3,2.9h8.7c1.6,0,2.9-1.3,2.9-2.9v-.3c0-.4.3-.7.7-.7s.7.3.7.7v.3c0,2.4-2,4.4-4.4,4.4h-8.7c-2.4,0-4.4-2-4.4-4.4v-8.8c0-2.4,1.9-4.4,4.4-4.4h8.7c2.4,0,4.4,2,4.4,4.4v.3c0,.4-.3.7-.7.7s-.7-.3-.7-.7Z"/>
</svg>