<?xml version="1.0" encoding="UTF-8"?>
<svg id="Layer_1" xmlns="http://www.w3.org/2000/svg" version="1.1" viewBox="0 0 16 16">
  <!-- Generator: Adobe Illustrator 29.4.0, SVG Export Plug-In . SVG Version: 2.1.0 Build 152)  -->
  <defs>
    <style>
      .st0 {
        fill: #6c707e;
      }
    </style>
  </defs>
  <path class="st0" d="M15.4,5.1l-2.3-3.3c0-.1-.2-.2-.3-.2H3.3c-.1,0-.3,0-.3.2L.6,5.1c0,0,0,.2,0,.3l7.2,8.9c0,0,.1,0,.2,0s.2,0,.2,0l7.2-8.9c0,0,0-.2,0-.3h0ZM8.1,2.5l1.6,2.2c0,.1,0,.3-.1.3h-3.1c-.1,0-.2-.2-.1-.3l1.6-2.2c0,0,.2,0,.3,0ZM5.5,4.6l-1.6-2.2c0-.1,0-.3.1-.3h3.1c.1,0,.2.2.1.3l-1.6,2.2c0,0-.2,0-.3,0ZM8.8,2.1h3.1c.1,0,.2.2.1.3l-1.6,2.2c0,0-.2,0-.3,0l-1.6-2.2c0-.1,0-.3.1-.3ZM10,5.6l-1.8,6.9c0,.2-.3.2-.3,0l-1.8-6.9c0-.1,0-.2.2-.2h3.7c.1,0,.2.1.2.2ZM7,12.4L1.6,5.7c0-.1,0-.3.1-.3h3.6c0,0,.1,0,.2.1l1.8,6.7c0,.2-.2.3-.3.1ZM10.7,5.4h3.6c.1,0,.2.2.1.3l-5.4,6.7c-.1.1-.3,0-.3-.1l1.8-6.7c0,0,0-.1.2-.1ZM11.1,4.7l1.6-2.2c0,0,.2,0,.3,0l1.6,2.2c0,.1,0,.3-.1.3h-3.1c-.1,0-.2-.2-.1-.3ZM3.4,2.5l1.6,2.2c0,.1,0,.3-.1.3H1.7c-.1,0-.2-.2-.1-.3l1.6-2.2c0,0,.2,0,.3,0Z"/>
</svg>