<?xml version="1.0" encoding="UTF-8"?>
<svg id="Layer_1" xmlns="http://www.w3.org/2000/svg" version="1.1" viewBox="0 0 16 16">
  <!-- Generator: Adobe Illustrator 29.4.0, SVG Export Plug-In . SVG Version: 2.1.0 Build 152)  -->
  <defs>
    <style>
      .st0 {
        fill: #6c707e;
      }
    </style>
  </defs>
  <path class="st0" d="M15.2,2.2c0,0-.2,0-.3,0l-4.6,1.7-4.6-1.7s0,0,0,0,0,0,0,0L.9,3.9c-.1,0-.2.2-.2.3v9.4c0,.1,0,.2.1.2,0,0,.2,0,.3,0l4.6-1.7,4.6,1.7c0,0,.1,0,.2,0l4.7-1.7c.1,0,.2-.2.2-.3V2.5c0-.1,0-.2-.1-.2ZM5.4,11.6l-4.1,1.5V4.4l4.1-1.5v8.7ZM10,13.1l-4.1-1.5V2.9l4.1,1.5v8.7ZM14.7,11.6l-4.1,1.5V4.4l4.1-1.5v8.7Z"/>
</svg>