<?xml version="1.0" encoding="UTF-8" standalone="no"?>
<svg
   xmlns:dc="http://purl.org/dc/elements/1.1/"
   xmlns:cc="http://creativecommons.org/ns#"
   xmlns:rdf="http://www.w3.org/1999/02/22-rdf-syntax-ns#"
   xmlns:svg="http://www.w3.org/2000/svg"
   xmlns="http://www.w3.org/2000/svg"
   viewBox="0 0 2013.3333 501.048"
   height="501.048"
   width="2013.3333"
   xml:space="preserve"
   id="svg2"
   version="1.1"><metadata
     id="metadata8"><rdf:RDF><cc:Work
         rdf:about=""><dc:format>image/svg+xml</dc:format><dc:type
           rdf:resource="http://purl.org/dc/dcmitype/StillImage" /></cc:Work></rdf:RDF></metadata><defs
     id="defs6"><clipPath
       id="clipPath18"
       clipPathUnits="userSpaceOnUse"><path
         id="path16"
         d="M 0,375.786 H 1509.999 V 0 H 0 Z" /></clipPath><clipPath
       id="clipPath30"
       clipPathUnits="userSpaceOnUse"><path
         id="path28"
         d="m 62.631,248.68 121.07,-69.899 V 92.413 c -0.242,-9.989 15.709,-10.553 15.466,0 v 0 95.22 L 93.43,248.68 l 93.411,53.931 78.381,-45.252 c 8.975,-4.694 16.473,6.609 7.672,13.351 v 0 l -86.053,49.683 z" /></clipPath><clipPath
       id="clipPath40"
       clipPathUnits="userSpaceOnUse"><path
         id="path38"
         d="m 217.692,207.457 c -10.311,-7.029 -0.805,-17.682 7.734,-13.351 v 0 l 72.263,41.721 V 132.402 L 195.134,73.193 101.221,127.414 v 79.223 c 0.403,10.07 -15.95,9.264 -15.466,0 v 0 -88.11 L 195.104,55.393 313.155,123.55 v 139.025 z" /></clipPath><clipPath
       id="clipPath50"
       clipPathUnits="userSpaceOnUse"><path
         id="path48"
         d="M 0,375.786 H 1509.999 V 0 H 0 Z" /></clipPath></defs><g
     transform="matrix(1.3333333,0,0,-1.3333333,0,501.048)"
     id="g10"><g
       id="g12"><g
         clip-path="url(#clipPath18)"
         id="g14"><g
           transform="translate(345.0846)"
           id="g20"><path
             id="path22"
             style="fill:#f8f8f8;fill-opacity:1;fill-rule:nonzero;stroke:none"
             d="m 0,0 h -314.383 c -16.956,0 -30.702,13.746 -30.702,30.701 v 314.384 c 0,16.956 13.746,30.701 30.702,30.701 H 0 c 16.956,0 30.701,-13.745 30.701,-30.701 V 30.701 C 30.701,13.746 16.956,0 0,0" /></g></g></g><g
       id="g24"><g
         clip-path="url(#clipPath30)"
         id="g26"><path
           id="path32"
           style="fill:#000000;fill-opacity:1;fill-rule:nonzero;stroke:none"
           d="M 62.631,81.86 H 281.695 V 320.393 H 62.631 Z" /></g></g><g
       id="g34"><g
         clip-path="url(#clipPath40)"
         id="g36"><path
           id="path42"
           style="fill:#000000;fill-opacity:1;fill-rule:nonzero;stroke:none"
           d="M 85.271,55.393 H 313.155 V 262.575 H 85.271 Z" /></g></g><g
       id="g44"><g
         clip-path="url(#clipPath50)"
         id="g46"><text
           id="text54"
           style="font-variant:normal;font-weight:300;font-stretch:normal;font-size:359.08789062px;font-family:'Jura Light';-inkscape-font-specification:Jura-Light;writing-mode:lr-tb;fill:#f8f8f8;fill-opacity:1;fill-rule:nonzero;stroke:none"
           transform="matrix(1,0,0,-1,437.7817,79.1982)"><tspan
             id="tspan52"
             y="0"
             x="0 135.73523 228.02081 454.24619 680.47156 889.78394">tipbox</tspan></text>
</g></g></g></svg>