<?xml version="1.0" encoding="UTF-8"?>
<svg id="Layer_1" xmlns="http://www.w3.org/2000/svg" xmlns:xlink="http://www.w3.org/1999/xlink" version="1.1" viewBox="0 0 1510 375.8">
  <!-- Generator: Adobe Illustrator 29.1.0, SVG Export Plug-In . SVG Version: 2.1.0 Build 142)  -->
  <defs>
    <style>
      .st0 {
        fill: #d8ff08;
      }

      .st1 {
        clip-path: url(#clippath-1);
      }

      .st2 {
        clip-rule: evenodd;
        fill: none;
      }

      .st3 {
        fill: #f8f8f8;
      }

      .st4 {
        clip-path: url(#clippath);
      }

      .st5 {
        fill: #161616;
      }
    </style>
    <clipPath id="clippath">
      <path class="st2" d="M183.7,283.4v-86.4L62.6,127.1l124.2-71.7,86.1,49.7c8.8,6.7,1.3,18-7.7,13.4l-78.4-45.3-93.4,53.9,105.7,61v95.2c.2,10.6-15.7,10-15.5,0"/>
    </clipPath>
    <clipPath id="clippath-1">
      <path class="st2" d="M217.7,168.3l95.5-55.1v139l-118.1,68.2-109.3-63.1v-88.1c-.5-9.3,15.9-10.1,15.5,0v79.2l93.9,54.2,102.6-59.2v-103.4l-72.3,41.7c-8.5,4.3-18-6.3-7.7-13.4"/>
    </clipPath>
  </defs>
  <rect class="st5" width="375.8" height="375.8" rx="30.7" ry="30.7"/>
  <g class="st4">
    <rect class="st0" x="62.6" y="55.4" width="219.1" height="238.5"/>
  </g>
  <g class="st1">
    <rect class="st3" x="85.3" y="113.2" width="227.9" height="207.2"/>
  </g>
  <g>
    <path class="st5" d="M544.4,296.6c-22.6,0-39.2-5.3-49.7-15.8-10.5-10.5-15.8-27-15.8-49.4v-86h-20.1c-7.5,0-11.3-3.8-11.3-11.3s3.8-11.3,11.3-11.3h20.1v-34.5c0-7.5,3.8-11.3,11.3-11.3s11.3,3.8,11.3,11.3v34.5h43.8c7.5,0,11.3,3.8,11.3,11.3s-3.8,11.3-11.3,11.3h-43.8v86c0,16.2,3.1,27.3,9.3,33.4,6.2,6.1,17.4,9.2,33.6,9.2s6.9.9,8.7,2.8c1.9,1.9,2.8,4.7,2.8,8.5,0,7.5-3.8,11.3-11.5,11.3Z"/>
    <path class="st5" d="M615.5,91.2c-9.3,0-14-4.7-14-14.2v-9c0-9.2,4.7-13.8,14-13.8h8.8c9,0,13.5,4.6,13.5,13.8v9c0,9.5-4.5,14.2-13.5,14.2h-8.8ZM619.8,296.6c-7.5,0-11.3-3.8-11.3-11.3v-151.2c0-7.5,3.8-11.3,11.3-11.3s11.3,3.8,11.3,11.3v151.2c0,7.5-3.8,11.3-11.3,11.3Z"/>
    <path class="st5" d="M712.1,368.4c-7.5,0-11.3-3.8-11.3-11.3v-223c0-7.5,3.8-11.3,11.3-11.3s11.3,3.8,11.3,11.3v12c5.7-7.7,13.6-13.5,23.4-17.4,9.9-4,22-5.9,36.4-5.9h13.6c23,0,39.8,5.4,50.5,16.1,10.7,10.7,16.1,27.6,16.1,50.5v40.6c0,22.9-5.4,39.7-16.1,50.5-10.7,10.8-27.6,16.2-50.5,16.2h-73.4v60.5c0,7.5-3.8,11.3-11.3,11.3ZM723.4,274h73.4c16.6,0,28.1-3.2,34.5-9.6,6.3-6.4,9.5-17.9,9.5-34.4v-40.6c0-16.6-3.2-28.1-9.5-34.5-6.3-6.3-17.8-9.5-34.5-9.5h-13.6c-17.7,0-31.8,2.6-42.3,7.7-10.5,5.1-16.3,13.2-17.5,24.1v96.8Z"/>
    <path class="st5" d="M938.3,296.6c-7.5,0-11.3-3.8-11.3-11.3V57.6c0-7.5,3.8-11.3,11.3-11.3s11.3,3.8,11.3,11.3v88.2c5.6-7.7,13.3-13.4,23.2-17.3,9.8-3.9,22-5.8,36.6-5.8h13.6c23,0,39.8,5.4,50.5,16.1,10.7,10.7,16.1,27.6,16.1,50.5v40.8c0,22.9-5.4,39.7-16.1,50.5-10.7,10.8-27.6,16.2-50.5,16.2h-13.6c-14.6,0-26.8-1.9-36.6-5.8-9.8-3.9-17.5-9.7-23.2-17.3v11.8c0,7.5-3.8,11.3-11.3,11.3ZM1009.4,274h13.6c16.6,0,28.1-3.2,34.5-9.6,6.3-6.4,9.5-17.9,9.5-34.4v-40.8c0-16.6-3.2-28.1-9.6-34.5-6.4-6.3-17.9-9.5-34.4-9.5h-13.6c-17.6,0-32,2.6-43.1,7.8-11.1,5.2-16.7,13.3-16.7,24.1v65.4c.1,10.5,5.7,18.4,16.9,23.6s25.4,7.8,42.9,7.8Z"/>
    <path class="st5" d="M1213.8,296.6c-22.9,0-39.7-5.4-50.5-16.2s-16.2-27.5-16.2-50.1v-40.9c0-23.1,5.4-40,16.2-50.7,10.8-10.7,27.6-16,50.5-15.9h29.4c23,0,39.8,5.4,50.5,16.1,10.7,10.7,16.1,27.6,16.1,50.5v40.6c0,22.9-5.4,39.7-16.1,50.5-10.7,10.8-27.6,16.2-50.5,16.2h-29.4ZM1169.8,230.3c0,16.4,3.2,27.8,9.6,34.1,6.4,6.3,17.9,9.5,34.4,9.5h29.4c16.6,0,28.1-3.2,34.5-9.6,6.3-6.4,9.5-17.9,9.5-34.4v-40.6c0-16.6-3.2-28.1-9.5-34.5-6.3-6.3-17.8-9.5-34.5-9.5h-29.4c-11-.1-19.7,1.2-26.1,3.9-6.4,2.7-11,7.2-13.7,13.6-2.8,6.4-4.1,15.2-4.1,26.5v40.9Z"/>
    <path class="st5" d="M1350.6,293.7c-5.9-4.7-6.6-10-2.2-16l55.5-72.7-49.4-63.6c-4.7-5.9-4-11.1,2-15.8,6-4.7,11.2-4,15.8,2l47.6,61.2,48.5-61.2c4.7-6.2,10-6.9,16-2,6,4.6,6.6,9.8,2,15.8l-52.4,65.7,54.6,70.6c4.7,6,4.1,11.3-1.8,15.8-6,4.8-11.3,4.1-16-2l-52.4-67.9-51.9,67.7c-4.5,6.2-9.8,7-15.8,2.3Z"/>
  </g>
</svg>